<svg xmlns="http://www.w3.org/2000/svg" xmlns:svg="http://www.w3.org/2000/svg" id="svg8" width="480" height="480" version="1.1" viewBox="0 0 127 127"><defs id="defs2"><marker style="overflow:visible" id="TriangleOutS" orient="auto" refX="0" refY="0"><path transform="scale(0.2)" style="fill-rule:evenodd;stroke:#000;stroke-width:1pt;stroke-opacity:1;fill:#000;fill-opacity:1" id="path989" d="M 5.77,0.0 L -2.88,5.0 L -2.88,-5.0 L 5.77,0.0 z"/></marker><marker style="overflow:visible" id="marker1473" orient="auto" refX="0" refY="0"><path id="path1471" d="M 8.7185878,4.0337352 L -2.2072895,0.016013256 L 8.7185884,-4.0017078 C 6.9730900,-1.6296469 6.9831476,1.6157441 8.7185878,4.0337352 z" transform="scale(0.6) rotate(180) translate(0,0)" style="fill-rule:evenodd;stroke-width:.625;stroke-linejoin:round;stroke:#000;stroke-opacity:1;fill:#000;fill-opacity:1"/></marker><marker style="overflow:visible" id="Arrow2Mend" orient="auto" refX="0" refY="0"><path id="path868" d="M 8.7185878,4.0337352 L -2.2072895,0.016013256 L 8.7185884,-4.0017078 C 6.9730900,-1.6296469 6.9831476,1.6157441 8.7185878,4.0337352 z" transform="scale(0.6) rotate(180) translate(0,0)" style="fill-rule:evenodd;stroke-width:.625;stroke-linejoin:round;stroke:#000;stroke-opacity:1;fill:#000;fill-opacity:1"/></marker><marker style="overflow:visible" id="DiamondSstart" orient="auto" refX="0" refY="0"><path transform="scale(0.2) translate(6,0)" style="fill-rule:evenodd;stroke:#000;stroke-width:1pt;stroke-opacity:1;fill:#000;fill-opacity:1" id="path935" d="M 0,-7.0710768 L -7.0710894,0 L 0,7.0710589 L 7.0710462,0 L 0,-7.0710768 z"/></marker><marker style="overflow:visible" id="Tail" orient="auto" refX="0" refY="0"><g style="stroke:#000;stroke-opacity:1;fill:#000;fill-opacity:1" id="g889" transform="scale(-1.2)"><path style="fill:#000;fill-rule:evenodd;stroke:#000;stroke-width:.8;stroke-linecap:round;stroke-opacity:1;fill-opacity:1" id="path877" d="M -3.8048674,-3.9585227 L 0.54352094,0"/><path style="fill:#000;fill-rule:evenodd;stroke:#000;stroke-width:.8;stroke-linecap:round;stroke-opacity:1;fill-opacity:1" id="path879" d="M -1.2866832,-3.9585227 L 3.0617053,0"/><path style="fill:#000;fill-rule:evenodd;stroke:#000;stroke-width:.8;stroke-linecap:round;stroke-opacity:1;fill-opacity:1" id="path881" d="M 1.3053582,-3.9585227 L 5.6537466,0"/><path style="fill:#000;fill-rule:evenodd;stroke:#000;stroke-width:.8;stroke-linecap:round;stroke-opacity:1;fill-opacity:1" id="path883" d="M -3.8048674,4.1775838 L 0.54352094,0.21974226"/><path style="fill:#000;fill-rule:evenodd;stroke:#000;stroke-width:.8;stroke-linecap:round;stroke-opacity:1;fill-opacity:1" id="path885" d="M -1.2866832,4.1775838 L 3.0617053,0.21974226"/><path style="fill:#000;fill-rule:evenodd;stroke:#000;stroke-width:.8;stroke-linecap:round;stroke-opacity:1;fill-opacity:1" id="path887" d="M 1.3053582,4.1775838 L 5.6537466,0.21974226"/></g></marker><marker style="overflow:visible" id="Arrow1Mend" orient="auto" refX="0" refY="0"><path transform="scale(0.4) rotate(180) translate(10,0)" style="fill-rule:evenodd;stroke:#000;stroke-width:1pt;stroke-opacity:1;fill:#000;fill-opacity:1" id="path850" d="M 0.0,0.0 L 5.0,-5.0 L -12.5,0.0 L 5.0,5.0 L 0.0,0.0 z"/></marker><marker style="overflow:visible" id="Arrow2Lend" orient="auto" refX="0" refY="0"><path id="path862" d="M 8.7185878,4.0337352 L -2.2072895,0.016013256 L 8.7185884,-4.0017078 C 6.9730900,-1.6296469 6.9831476,1.6157441 8.7185878,4.0337352 z" transform="scale(1.1) rotate(180) translate(1,0)" style="fill-rule:evenodd;stroke-width:.625;stroke-linejoin:round;stroke:#000;stroke-opacity:1;fill:#000;fill-opacity:1"/></marker><marker style="overflow:visible" id="Arrow1Lstart" orient="auto" refX="0" refY="0"><path transform="scale(0.8) translate(12.5,0)" style="fill-rule:evenodd;stroke:#000;stroke-width:1pt;stroke-opacity:1;fill:#000;fill-opacity:1" id="path841" d="M 0.0,0.0 L 5.0,-5.0 L -12.5,0.0 L 5.0,5.0 L 0.0,0.0 z"/></marker><marker style="overflow:visible" id="Arrow1Lend" orient="auto" refX="0" refY="0"><path transform="scale(0.8) rotate(180) translate(12.5,0)" style="fill-rule:evenodd;stroke:#000;stroke-width:1pt;stroke-opacity:1;fill:#000;fill-opacity:1" id="path844" d="M 0.0,0.0 L 5.0,-5.0 L -12.5,0.0 L 5.0,5.0 L 0.0,0.0 z"/></marker><marker id="TriangleOutS-9" orient="auto" refX="0" refY="0" style="overflow:visible"><path id="path989-1" d="M 5.77,0 -2.88,5 V -5 Z" style="fill:#000;fill-opacity:1;fill-rule:evenodd;stroke:#000;stroke-width:1pt;stroke-opacity:1" transform="scale(0.2)"/></marker><marker id="TriangleOutS-4" orient="auto" refX="0" refY="0" style="overflow:visible"><path id="path989-12" d="M 5.77,0 -2.88,5 V -5 Z" style="fill:#000;fill-opacity:1;fill-rule:evenodd;stroke:#000;stroke-width:1pt;stroke-opacity:1" transform="scale(0.2)"/></marker><marker id="TriangleOutS-2" orient="auto" refX="0" refY="0" style="overflow:visible"><path id="path989-3" d="M 5.77,0 -2.88,5 V -5 Z" style="fill:#000;fill-opacity:1;fill-rule:evenodd;stroke:#000;stroke-width:1pt;stroke-opacity:1" transform="scale(0.2)"/></marker></defs><metadata id="metadata5"/><g id="layer1"><rect id="rect835" width="118.533" height="118.533" x="4.233" y="4.233" style="opacity:.995;fill:none;stroke:#000;stroke-width:2.11667;stroke-linejoin:round;paint-order:stroke fill markers"/><circle id="path837" cx="63.5" cy="63.5" r="12.7" style="opacity:.995;fill:none;stroke:#000;stroke-width:4.23333333;stroke-linejoin:round;paint-order:stroke fill markers;stroke-miterlimit:4;stroke-dasharray:none"/><path id="path839" d="M 76.199999,63.499999 110.06667,63.5" style="fill:none;stroke:#000;stroke-width:8.46667;stroke-linecap:butt;stroke-linejoin:miter;stroke-miterlimit:4;stroke-dasharray:none;stroke-opacity:1;marker-end:url(#TriangleOutS)"/><path style="fill:none;stroke:#000;stroke-width:8.46667;stroke-linecap:butt;stroke-linejoin:miter;stroke-miterlimit:4;stroke-dasharray:none;stroke-opacity:1;marker-end:url(#TriangleOutS-9)" id="path839-6" d="m 50.8,63.5 -33.866672,0"/><path style="fill:none;stroke:#000;stroke-width:8.46667;stroke-linecap:butt;stroke-linejoin:miter;stroke-miterlimit:4;stroke-dasharray:none;stroke-opacity:1;marker-end:url(#TriangleOutS-4)" id="path839-4" d="m 63.5,50.8 10e-7,-33.866671"/><path style="fill:none;stroke:#000;stroke-width:8.46667;stroke-linecap:butt;stroke-linejoin:miter;stroke-miterlimit:4;stroke-dasharray:none;stroke-opacity:1;marker-end:url(#TriangleOutS-2)" id="path839-67" d="m 63.5,76.19999 v 33.86668"/></g></svg>