<svg xmlns="http://www.w3.org/2000/svg" width="340" height="220" viewBox="0 0 340 220"><path fill="none" stroke="#000" stroke-width="2" d="M 20 20 L 320 20 L 320 80 L 260 80 L 260 140 L 80 140 L 80 200 L 20 200 Z"/><line x1="80" x2="80" y1="20" y2="80" stroke="#000" stroke-width="2"/><line x1="140" x2="140" y1="20" y2="80" stroke="#000" stroke-width="2"/><line x1="200" x2="200" y1="20" y2="80" stroke="#000" stroke-width="2"/><line x1="260" x2="260" y1="20" y2="80" stroke="#000" stroke-width="2"/><line x1="20" x2="260" y1="80" y2="80" stroke="#000" stroke-width="2"/><line x1="80" x2="80" y1="80" y2="140" stroke="#000" stroke-width="2"/><line x1="140" x2="140" y1="80" y2="140" stroke="#000" stroke-width="2"/><line x1="200" x2="200" y1="80" y2="140" stroke="#000" stroke-width="2"/><line x1="20" x2="80" y1="140" y2="140" stroke="#000" stroke-width="2"/><text x="50" y="58" fill="#000" font-family="Computer Modern, Times, serif" font-size="32" text-anchor="middle">7</text><text x="110" y="58" fill="#000" font-family="Computer Modern, Times, serif" font-size="32" text-anchor="middle">5</text><text x="170" y="58" fill="#000" font-family="Computer Modern, Times, serif" font-size="32" text-anchor="middle">4</text><text x="230" y="58" fill="#000" font-family="Computer Modern, Times, serif" font-size="32" text-anchor="middle">3</text><text x="290" y="58" fill="#000" font-family="Computer Modern, Times, serif" font-size="32" text-anchor="middle">1</text><text x="50" y="118" fill="#000" font-family="Computer Modern, Times, serif" font-size="32" text-anchor="middle">5</text><text x="110" y="118" fill="#000" font-family="Computer Modern, Times, serif" font-size="32" text-anchor="middle">3</text><text x="170" y="118" fill="#000" font-family="Computer Modern, Times, serif" font-size="32" text-anchor="middle">2</text><text x="230" y="118" fill="#000" font-family="Computer Modern, Times, serif" font-size="32" text-anchor="middle">1</text><text x="50" y="178" fill="#000" font-family="Computer Modern, Times, serif" font-size="32" text-anchor="middle">1</text></svg>