<svg xmlns="http://www.w3.org/2000/svg" width="720" height="230" viewBox="0 0 720 230"><g transform="translate(0,0)"><svg width="170" height="170" viewBox="0 0 170 170"><path fill="none" stroke="#000" stroke-width="2" d="M5 5 H155 V55 H105 V105 H55 V155 H5 Z"/><line x1="55" x2="55" y1="5" y2="55" stroke="#000" stroke-width="2"/><line x1="105" x2="105" y1="5" y2="55" stroke="#000" stroke-width="2"/><line x1="5" x2="105" y1="55" y2="55" stroke="#000" stroke-width="2"/><line x1="55" x2="55" y1="55" y2="105" stroke="#000" stroke-width="2"/><line x1="5" x2="55" y1="105" y2="105" stroke="#000" stroke-width="2"/><text x="30" y="30" dominant-baseline="middle" font-family="Times" font-size="32" text-anchor="middle">2</text><text x="80" y="30" dominant-baseline="middle" font-family="Times" font-size="32" text-anchor="middle">5</text><text x="130" y="30" dominant-baseline="middle" font-family="Times" font-size="32" text-anchor="middle">9</text><text x="30" y="80" dominant-baseline="middle" font-family="Times" font-size="32" text-anchor="middle">6</text><text x="80" y="80" dominant-baseline="middle" font-family="Times" font-size="32" text-anchor="middle">7</text><text x="30" y="130" dominant-baseline="middle" font-family="Times" font-size="32" text-anchor="middle">8</text></svg></g><g transform="translate(170,0)"><svg width="220" height="170" viewBox="0 0 220 170"><path fill="none" stroke="#000" stroke-width="2" d="M5 5 H155 V55 H105 V105 H55 V155 H5 Z"/><line x1="55" x2="55" y1="5" y2="55" stroke="#000" stroke-width="2"/><line x1="105" x2="105" y1="5" y2="55" stroke="#000" stroke-width="2"/><line x1="5" x2="105" y1="55" y2="55" stroke="#000" stroke-width="2"/><line x1="55" x2="55" y1="55" y2="105" stroke="#000" stroke-width="2"/><line x1="5" x2="55" y1="105" y2="105" stroke="#000" stroke-width="2"/><text x="30" y="30" dominant-baseline="middle" font-family="Times" font-size="32" text-anchor="middle">2</text><text x="80" y="30" fill="red" dominant-baseline="middle" font-family="Times" font-size="32" text-anchor="middle">3</text><text x="130" y="30" dominant-baseline="middle" font-family="Times" font-size="32" text-anchor="middle">9</text><text x="180" y="30" fill="red" dominant-baseline="middle" font-family="Times" font-size="32" text-anchor="middle">(5)</text><text x="30" y="80" dominant-baseline="middle" font-family="Times" font-size="32" text-anchor="middle">6</text><text x="80" y="80" dominant-baseline="middle" font-family="Times" font-size="32" text-anchor="middle">7</text><text x="30" y="130" dominant-baseline="middle" font-family="Times" font-size="32" text-anchor="middle">8</text></svg></g><g transform="translate(390,0)"><svg width="220" height="170" viewBox="0 0 220 170"><path fill="none" stroke="#000" stroke-width="2" d="M5 5 H155 V55 H105 V105 H55 V155 H5 Z"/><line x1="55" x2="55" y1="5" y2="55" stroke="#000" stroke-width="2"/><line x1="105" x2="105" y1="5" y2="55" stroke="#000" stroke-width="2"/><line x1="5" x2="155" y1="55" y2="55" stroke="#000" stroke-width="2"/><line x1="55" x2="55" y1="55" y2="105" stroke="#000" stroke-width="2"/><line x1="105" x2="105" y1="55" y2="105" stroke="#000" stroke-width="2"/><line x1="5" x2="55" y1="105" y2="105" stroke="#000" stroke-width="2"/><text x="30" y="30" dominant-baseline="middle" font-family="Times" font-size="32" text-anchor="middle">2</text><text x="80" y="30" fill="#00f" dominant-baseline="middle" font-family="Times" font-size="32" text-anchor="middle">3</text><text x="130" y="30" dominant-baseline="middle" font-family="Times" font-size="32" text-anchor="middle">9</text><text x="30" y="80" fill="red" dominant-baseline="middle" font-family="Times" font-size="32" text-anchor="middle">5</text><text x="80" y="80" dominant-baseline="middle" font-family="Times" font-size="32" text-anchor="middle">7</text><text x="130" y="80" fill="red" dominant-baseline="middle" font-family="Times" font-size="32" text-anchor="middle">(6)</text><text x="30" y="130" dominant-baseline="middle" font-family="Times" font-size="32" text-anchor="middle">8</text></svg></g><g transform="translate(560,0)"><svg width="170" height="230" viewBox="0 0 170 230"><path fill="none" stroke="#000" stroke-width="2" d="M5 5 H155 V55 H105 V105 H55 V155 H55 V205 H5 Z"/><line x1="55" x2="55" y1="5" y2="55" stroke="#000" stroke-width="2"/><line x1="105" x2="105" y1="5" y2="55" stroke="#000" stroke-width="2"/><line x1="5" x2="105" y1="55" y2="55" stroke="#000" stroke-width="2"/><line x1="55" x2="55" y1="55" y2="105" stroke="#000" stroke-width="2"/><line x1="5" x2="55" y1="105" y2="105" stroke="#000" stroke-width="2"/><line x1="5" x2="55" y1="155" y2="155" stroke="#000" stroke-width="2"/><text x="30" y="30" dominant-baseline="middle" font-family="Times" font-size="32" text-anchor="middle">2</text><text x="80" y="30" fill="#00f" dominant-baseline="middle" font-family="Times" font-size="32" text-anchor="middle">3</text><text x="130" y="30" dominant-baseline="middle" font-family="Times" font-size="32" text-anchor="middle">9</text><text x="30" y="80" fill="#00f" dominant-baseline="middle" font-family="Times" font-size="32" text-anchor="middle">5</text><text x="80" y="80" dominant-baseline="middle" font-family="Times" font-size="32" text-anchor="middle">7</text><text x="30" y="130" fill="#00f" dominant-baseline="middle" font-family="Times" font-size="32" text-anchor="middle">6</text><text x="30" y="180" fill="red" dominant-baseline="middle" font-family="Times" font-size="32" text-anchor="middle">8</text></svg></g></svg>