<svg xmlns="http://www.w3.org/2000/svg" xmlns:xlink="http://www.w3.org/1999/xlink" width="100%" height="100%" viewBox="-12 -508 1024 576"><title>Comparison Ford circles Farey diagram</title><desc>Comparison of Ford circles and a Farey diagram with circular arcs for n from 1 to 9 by CMG Lee. Note that each arc intersects its corresponding circles at right angles. In the SVG image, hover over a circle or curve to highlight it and its terms.</desc><style type="text/css">#main{font-family:Helvetica,Arial,sans-serif;font-size:32px;text-anchor:middle;stroke-linecap:round;stroke-linejoin:round;stroke-opacity:.75;stroke:none;fill:none}#main:hover{stroke-opacity:.1;fill-opacity:0}.active:hover{stroke-opacity:1;fill-opacity:1}text{cursor:default}</style><defs><path id="cross" stroke="#fff" stroke-opacity=".75" stroke-width="3" d="M -3,-3 L 3,3 M -3,3 L 3,-3"/></defs><circle cx="0" cy="0" r="99999" fill="#fff"/><g id="main"><path stroke="#999" d="M 0,0 H 1000"/><g fill="#999" stroke="#999" class="active"><text x="0" y="1em" transform="translate( 0,0) scale(0.8,1)"><tspan>0</tspan><tspan x="0">_</tspan><tspan x="0" dy="1em">1</tspan></text><text x="0" y="1em" transform="translate( 111,0) scale(0.8,1)"><tspan>1</tspan><tspan x="0">_</tspan><tspan x="0" dy="1em">9</tspan></text><text x="0" y="1em" transform="translate( 125,0) scale(0.8,1)"><tspan>1</tspan><tspan x="0">_</tspan><tspan x="0" dy="1em">8</tspan></text><text x="0" y="1em" transform="translate( 143,0) scale(0.8,1)"><tspan>1</tspan><tspan x="0">_</tspan><tspan x="0" dy="1em">7</tspan></text><text x="0" y="1em" transform="translate( 167,0) scale(0.8,1)"><tspan>1</tspan><tspan x="0">_</tspan><tspan x="0" dy="1em">6</tspan></text><text x="0" y="1em" transform="translate( 200,0) scale(0.8,1)"><tspan>1</tspan><tspan x="0">_</tspan><tspan x="0" dy="1em">5</tspan></text><text x="0" y="1em" transform="translate( 222,0) scale(0.8,1)"><tspan>2</tspan><tspan x="0">_</tspan><tspan x="0" dy="1em">9</tspan></text><text x="0" y="1em" transform="translate( 250,0) scale(0.8,1)"><tspan>1</tspan><tspan x="0">_</tspan><tspan x="0" dy="1em">4</tspan></text><text x="0" y="1em" transform="translate( 286,0) scale(0.8,1)"><tspan>2</tspan><tspan x="0">_</tspan><tspan x="0" dy="1em">7</tspan></text><text x="0" y="1em" transform="translate( 333,0) scale(0.8,1)"><tspan>1</tspan><tspan x="0">_</tspan><tspan x="0" dy="1em">3</tspan></text><text x="0" y="1em" transform="translate( 375,0) scale(0.8,1)"><tspan>3</tspan><tspan x="0">_</tspan><tspan x="0" dy="1em">8</tspan></text><text x="0" y="1em" transform="translate( 400,0) scale(0.8,1)"><tspan>2</tspan><tspan x="0">_</tspan><tspan x="0" dy="1em">5</tspan></text><text x="0" y="1em" transform="translate( 429,0) scale(0.8,1)"><tspan>3</tspan><tspan x="0">_</tspan><tspan x="0" dy="1em">7</tspan></text><text x="0" y="1em" transform="translate( 444,0) scale(0.8,1)"><tspan>4</tspan><tspan x="0">_</tspan><tspan x="0" dy="1em">9</tspan></text><text x="0" y="1em" transform="translate( 500,0) scale(0.8,1)"><tspan>1</tspan><tspan x="0">_</tspan><tspan x="0" dy="1em">2</tspan></text><text x="0" y="1em" transform="translate( 556,0) scale(0.8,1)"><tspan>5</tspan><tspan x="0">_</tspan><tspan x="0" dy="1em">9</tspan></text><text x="0" y="1em" transform="translate( 571,0) scale(0.8,1)"><tspan>4</tspan><tspan x="0">_</tspan><tspan x="0" dy="1em">7</tspan></text><text x="0" y="1em" transform="translate( 600,0) scale(0.8,1)"><tspan>3</tspan><tspan x="0">_</tspan><tspan x="0" dy="1em">5</tspan></text><text x="0" y="1em" transform="translate( 625,0) scale(0.8,1)"><tspan>5</tspan><tspan x="0">_</tspan><tspan x="0" dy="1em">8</tspan></text><text x="0" y="1em" transform="translate( 667,0) scale(0.8,1)"><tspan>2</tspan><tspan x="0">_</tspan><tspan x="0" dy="1em">3</tspan></text><text x="0" y="1em" transform="translate( 714,0) scale(0.8,1)"><tspan>5</tspan><tspan x="0">_</tspan><tspan x="0" dy="1em">7</tspan></text><text x="0" y="1em" transform="translate( 750,0) scale(0.8,1)"><tspan>3</tspan><tspan x="0">_</tspan><tspan x="0" dy="1em">4</tspan></text><text x="0" y="1em" transform="translate( 778,0) scale(0.8,1)"><tspan>7</tspan><tspan x="0">_</tspan><tspan x="0" dy="1em">9</tspan></text><text x="0" y="1em" transform="translate( 800,0) scale(0.8,1)"><tspan>4</tspan><tspan x="0">_</tspan><tspan x="0" dy="1em">5</tspan></text><text x="0" y="1em" transform="translate( 833,0) scale(0.8,1)"><tspan>5</tspan><tspan x="0">_</tspan><tspan x="0" dy="1em">6</tspan></text><text x="0" y="1em" transform="translate( 857,0) scale(0.8,1)"><tspan>6</tspan><tspan x="0">_</tspan><tspan x="0" dy="1em">7</tspan></text><text x="0" y="1em" transform="translate( 875,0) scale(0.8,1)"><tspan>7</tspan><tspan x="0">_</tspan><tspan x="0" dy="1em">8</tspan></text><text x="0" y="1em" transform="translate( 889,0) scale(0.8,1)"><tspan>8</tspan><tspan x="0">_</tspan><tspan x="0" dy="1em">9</tspan></text><text x="0" y="1em" transform="translate(1000,0) scale(0.8,1)"><tspan>1</tspan><tspan x="0">_</tspan><tspan x="0" dy="1em">1</tspan></text><g opacity=".25"><g transform="translate( 0,-500)"><circle cx="0" cy="0" r="500"/><use xlink:href="#cross"/></g><g transform="translate( 111, -6)"><circle cx="0" cy="0" r="6"/><use xlink:href="#cross"/></g><g transform="translate( 125, -8)"><circle cx="0" cy="0" r="8"/><use xlink:href="#cross"/></g><g transform="translate( 143, -10)"><circle cx="0" cy="0" r="10"/><use xlink:href="#cross"/></g><g transform="translate( 167, -14)"><circle cx="0" cy="0" r="14"/><use xlink:href="#cross"/></g><g transform="translate( 200, -20)"><circle cx="0" cy="0" r="20"/><use xlink:href="#cross"/></g><g transform="translate( 222, -6)"><circle cx="0" cy="0" r="6"/><use xlink:href="#cross"/></g><g transform="translate( 250, -31)"><circle cx="0" cy="0" r="31"/><use xlink:href="#cross"/></g><g transform="translate( 286, -10)"><circle cx="0" cy="0" r="10"/><use xlink:href="#cross"/></g><g transform="translate( 333, -56)"><circle cx="0" cy="0" r="56"/><use xlink:href="#cross"/></g><g transform="translate( 375, -8)"><circle cx="0" cy="0" r="8"/><use xlink:href="#cross"/></g><g transform="translate( 400, -20)"><circle cx="0" cy="0" r="20"/><use xlink:href="#cross"/></g><g transform="translate( 429, -10)"><circle cx="0" cy="0" r="10"/><use xlink:href="#cross"/></g><g transform="translate( 444, -6)"><circle cx="0" cy="0" r="6"/><use xlink:href="#cross"/></g><g transform="translate( 500,-125)"><circle cx="0" cy="0" r="125"/><use xlink:href="#cross"/></g><g transform="translate( 556, -6)"><circle cx="0" cy="0" r="6"/><use xlink:href="#cross"/></g><g transform="translate( 571, -10)"><circle cx="0" cy="0" r="10"/><use xlink:href="#cross"/></g><g transform="translate( 600, -20)"><circle cx="0" cy="0" r="20"/><use xlink:href="#cross"/></g><g transform="translate( 625, -8)"><circle cx="0" cy="0" r="8"/><use xlink:href="#cross"/></g><g transform="translate( 667, -56)"><circle cx="0" cy="0" r="56"/><use xlink:href="#cross"/></g><g transform="translate( 714, -10)"><circle cx="0" cy="0" r="10"/><use xlink:href="#cross"/></g><g transform="translate( 750, -31)"><circle cx="0" cy="0" r="31"/><use xlink:href="#cross"/></g><g transform="translate( 778, -6)"><circle cx="0" cy="0" r="6"/><use xlink:href="#cross"/></g><g transform="translate( 800, -20)"><circle cx="0" cy="0" r="20"/><use xlink:href="#cross"/></g><g transform="translate( 833, -14)"><circle cx="0" cy="0" r="14"/><use xlink:href="#cross"/></g><g transform="translate( 857, -10)"><circle cx="0" cy="0" r="10"/><use xlink:href="#cross"/></g><g transform="translate( 875, -8)"><circle cx="0" cy="0" r="8"/><use xlink:href="#cross"/></g><g transform="translate( 889, -6)"><circle cx="0" cy="0" r="6"/><use xlink:href="#cross"/></g><g transform="translate(1000,-500)"><circle cx="0" cy="0" r="500"/><use xlink:href="#cross"/></g></g><path fill="none" stroke-width="4" d="M 0,0 A 55,55 0 0 1 111,0 A 7,7 0 0 1 125,0 A 9,9 0 0 1 143,0 A 12,12 0 0 1 167,0 A 16,16 0 0 1 200,0 A 11,11 0 0 1 222,0 A 14,14 0 0 1 250,0 A 18,18 0 0 1 286,0 A 23,23 0 0 1 333,0 A 21,21 0 0 1 375,0 A 12,12 0 0 1 400,0 A 14,14 0 0 1 429,0 A 7,7 0 0 1 444,0 A 28,28 0 0 1 500,0 A 28,28 0 0 1 556,0 A 7,7 0 0 1 571,0 A 14,14 0 0 1 600,0 A 12,12 0 0 1 625,0 A 21,21 0 0 1 667,0 A 23,23 0 0 1 714,0 A 18,18 0 0 1 750,0 A 14,14 0 0 1 778,0 A 11,11 0 0 1 800,0 A 16,16 0 0 1 833,0 A 12,12 0 0 1 857,0 A 9,9 0 0 1 875,0 A 7,7 0 0 1 889,0 A 55,55 0 0 1 1000,0"/><title>F(9) = { 0/1, 1/9, 1/8, 1/7, 1/6, 1/5, 2/9, 1/4, 2/7, 1/3, 3/8, 2/5, 3/7, 4/9, 1/2, 5/9, 4/7, 3/5, 5/8, 2/3, 5/7, 3/4, 7/9, 4/5, 5/6, 6/7, 7/8, 8/9, 1/1 }</title></g><g fill="#333" stroke="#333" class="active"><text x="0" y="1em" transform="translate( 0,0) scale(0.8,1)"><tspan>0</tspan><tspan x="0">_</tspan><tspan x="0" dy="1em">1</tspan></text><text x="0" y="1em" transform="translate( 125,0) scale(0.8,1)"><tspan>1</tspan><tspan x="0">_</tspan><tspan x="0" dy="1em">8</tspan></text><text x="0" y="1em" transform="translate( 143,0) scale(0.8,1)"><tspan>1</tspan><tspan x="0">_</tspan><tspan x="0" dy="1em">7</tspan></text><text x="0" y="1em" transform="translate( 167,0) scale(0.8,1)"><tspan>1</tspan><tspan x="0">_</tspan><tspan x="0" dy="1em">6</tspan></text><text x="0" y="1em" transform="translate( 200,0) scale(0.8,1)"><tspan>1</tspan><tspan x="0">_</tspan><tspan x="0" dy="1em">5</tspan></text><text x="0" y="1em" transform="translate( 250,0) scale(0.8,1)"><tspan>1</tspan><tspan x="0">_</tspan><tspan x="0" dy="1em">4</tspan></text><text x="0" y="1em" transform="translate( 286,0) scale(0.8,1)"><tspan>2</tspan><tspan x="0">_</tspan><tspan x="0" dy="1em">7</tspan></text><text x="0" y="1em" transform="translate( 333,0) scale(0.8,1)"><tspan>1</tspan><tspan x="0">_</tspan><tspan x="0" dy="1em">3</tspan></text><text x="0" y="1em" transform="translate( 375,0) scale(0.8,1)"><tspan>3</tspan><tspan x="0">_</tspan><tspan x="0" dy="1em">8</tspan></text><text x="0" y="1em" transform="translate( 400,0) scale(0.8,1)"><tspan>2</tspan><tspan x="0">_</tspan><tspan x="0" dy="1em">5</tspan></text><text x="0" y="1em" transform="translate( 429,0) scale(0.8,1)"><tspan>3</tspan><tspan x="0">_</tspan><tspan x="0" dy="1em">7</tspan></text><text x="0" y="1em" transform="translate( 500,0) scale(0.8,1)"><tspan>1</tspan><tspan x="0">_</tspan><tspan x="0" dy="1em">2</tspan></text><text x="0" y="1em" transform="translate( 571,0) scale(0.8,1)"><tspan>4</tspan><tspan x="0">_</tspan><tspan x="0" dy="1em">7</tspan></text><text x="0" y="1em" transform="translate( 600,0) scale(0.8,1)"><tspan>3</tspan><tspan x="0">_</tspan><tspan x="0" dy="1em">5</tspan></text><text x="0" y="1em" transform="translate( 625,0) scale(0.8,1)"><tspan>5</tspan><tspan x="0">_</tspan><tspan x="0" dy="1em">8</tspan></text><text x="0" y="1em" transform="translate( 667,0) scale(0.8,1)"><tspan>2</tspan><tspan x="0">_</tspan><tspan x="0" dy="1em">3</tspan></text><text x="0" y="1em" transform="translate( 714,0) scale(0.8,1)"><tspan>5</tspan><tspan x="0">_</tspan><tspan x="0" dy="1em">7</tspan></text><text x="0" y="1em" transform="translate( 750,0) scale(0.8,1)"><tspan>3</tspan><tspan x="0">_</tspan><tspan x="0" dy="1em">4</tspan></text><text x="0" y="1em" transform="translate( 800,0) scale(0.8,1)"><tspan>4</tspan><tspan x="0">_</tspan><tspan x="0" dy="1em">5</tspan></text><text x="0" y="1em" transform="translate( 833,0) scale(0.8,1)"><tspan>5</tspan><tspan x="0">_</tspan><tspan x="0" dy="1em">6</tspan></text><text x="0" y="1em" transform="translate( 857,0) scale(0.8,1)"><tspan>6</tspan><tspan x="0">_</tspan><tspan x="0" dy="1em">7</tspan></text><text x="0" y="1em" transform="translate( 875,0) scale(0.8,1)"><tspan>7</tspan><tspan x="0">_</tspan><tspan x="0" dy="1em">8</tspan></text><text x="0" y="1em" transform="translate(1000,0) scale(0.8,1)"><tspan>1</tspan><tspan x="0">_</tspan><tspan x="0" dy="1em">1</tspan></text><g opacity=".25"><g transform="translate( 0,-500)"><circle cx="0" cy="0" r="500"/><use xlink:href="#cross"/></g><g transform="translate( 125, -8)"><circle cx="0" cy="0" r="8"/><use xlink:href="#cross"/></g><g transform="translate( 143, -10)"><circle cx="0" cy="0" r="10"/><use xlink:href="#cross"/></g><g transform="translate( 167, -14)"><circle cx="0" cy="0" r="14"/><use xlink:href="#cross"/></g><g transform="translate( 200, -20)"><circle cx="0" cy="0" r="20"/><use xlink:href="#cross"/></g><g transform="translate( 250, -31)"><circle cx="0" cy="0" r="31"/><use xlink:href="#cross"/></g><g transform="translate( 286, -10)"><circle cx="0" cy="0" r="10"/><use xlink:href="#cross"/></g><g transform="translate( 333, -56)"><circle cx="0" cy="0" r="56"/><use xlink:href="#cross"/></g><g transform="translate( 375, -8)"><circle cx="0" cy="0" r="8"/><use xlink:href="#cross"/></g><g transform="translate( 400, -20)"><circle cx="0" cy="0" r="20"/><use xlink:href="#cross"/></g><g transform="translate( 429, -10)"><circle cx="0" cy="0" r="10"/><use xlink:href="#cross"/></g><g transform="translate( 500,-125)"><circle cx="0" cy="0" r="125"/><use xlink:href="#cross"/></g><g transform="translate( 571, -10)"><circle cx="0" cy="0" r="10"/><use xlink:href="#cross"/></g><g transform="translate( 600, -20)"><circle cx="0" cy="0" r="20"/><use xlink:href="#cross"/></g><g transform="translate( 625, -8)"><circle cx="0" cy="0" r="8"/><use xlink:href="#cross"/></g><g transform="translate( 667, -56)"><circle cx="0" cy="0" r="56"/><use xlink:href="#cross"/></g><g transform="translate( 714, -10)"><circle cx="0" cy="0" r="10"/><use xlink:href="#cross"/></g><g transform="translate( 750, -31)"><circle cx="0" cy="0" r="31"/><use xlink:href="#cross"/></g><g transform="translate( 800, -20)"><circle cx="0" cy="0" r="20"/><use xlink:href="#cross"/></g><g transform="translate( 833, -14)"><circle cx="0" cy="0" r="14"/><use xlink:href="#cross"/></g><g transform="translate( 857, -10)"><circle cx="0" cy="0" r="10"/><use xlink:href="#cross"/></g><g transform="translate( 875, -8)"><circle cx="0" cy="0" r="8"/><use xlink:href="#cross"/></g><g transform="translate(1000,-500)"><circle cx="0" cy="0" r="500"/><use xlink:href="#cross"/></g></g><path fill="none" stroke-width="4" d="M 0,0 A 62,62 0 0 1 125,0 A 9,9 0 0 1 143,0 A 12,12 0 0 1 167,0 A 16,16 0 0 1 200,0 A 25,25 0 0 1 250,0 A 18,18 0 0 1 286,0 A 23,23 0 0 1 333,0 A 21,21 0 0 1 375,0 A 12,12 0 0 1 400,0 A 14,14 0 0 1 429,0 A 35,35 0 0 1 500,0 A 35,35 0 0 1 571,0 A 14,14 0 0 1 600,0 A 12,12 0 0 1 625,0 A 21,21 0 0 1 667,0 A 23,23 0 0 1 714,0 A 18,18 0 0 1 750,0 A 25,25 0 0 1 800,0 A 16,16 0 0 1 833,0 A 12,12 0 0 1 857,0 A 9,9 0 0 1 875,0 A 62,62 0 0 1 1000,0"/><title>F(8) = { 0/1, 1/8, 1/7, 1/6, 1/5, 1/4, 2/7, 1/3, 3/8, 2/5, 3/7, 1/2, 4/7, 3/5, 5/8, 2/3, 5/7, 3/4, 4/5, 5/6, 6/7, 7/8, 1/1 }</title></g><g fill="#c0f" stroke="#c0f" class="active"><text x="0" y="1em" transform="translate( 0,0) scale(0.8,1)"><tspan>0</tspan><tspan x="0">_</tspan><tspan x="0" dy="1em">1</tspan></text><text x="0" y="1em" transform="translate( 143,0) scale(0.8,1)"><tspan>1</tspan><tspan x="0">_</tspan><tspan x="0" dy="1em">7</tspan></text><text x="0" y="1em" transform="translate( 167,0) scale(0.8,1)"><tspan>1</tspan><tspan x="0">_</tspan><tspan x="0" dy="1em">6</tspan></text><text x="0" y="1em" transform="translate( 200,0) scale(0.8,1)"><tspan>1</tspan><tspan x="0">_</tspan><tspan x="0" dy="1em">5</tspan></text><text x="0" y="1em" transform="translate( 250,0) scale(0.8,1)"><tspan>1</tspan><tspan x="0">_</tspan><tspan x="0" dy="1em">4</tspan></text><text x="0" y="1em" transform="translate( 286,0) scale(0.8,1)"><tspan>2</tspan><tspan x="0">_</tspan><tspan x="0" dy="1em">7</tspan></text><text x="0" y="1em" transform="translate( 333,0) scale(0.8,1)"><tspan>1</tspan><tspan x="0">_</tspan><tspan x="0" dy="1em">3</tspan></text><text x="0" y="1em" transform="translate( 400,0) scale(0.8,1)"><tspan>2</tspan><tspan x="0">_</tspan><tspan x="0" dy="1em">5</tspan></text><text x="0" y="1em" transform="translate( 429,0) scale(0.8,1)"><tspan>3</tspan><tspan x="0">_</tspan><tspan x="0" dy="1em">7</tspan></text><text x="0" y="1em" transform="translate( 500,0) scale(0.8,1)"><tspan>1</tspan><tspan x="0">_</tspan><tspan x="0" dy="1em">2</tspan></text><text x="0" y="1em" transform="translate( 571,0) scale(0.8,1)"><tspan>4</tspan><tspan x="0">_</tspan><tspan x="0" dy="1em">7</tspan></text><text x="0" y="1em" transform="translate( 600,0) scale(0.8,1)"><tspan>3</tspan><tspan x="0">_</tspan><tspan x="0" dy="1em">5</tspan></text><text x="0" y="1em" transform="translate( 667,0) scale(0.8,1)"><tspan>2</tspan><tspan x="0">_</tspan><tspan x="0" dy="1em">3</tspan></text><text x="0" y="1em" transform="translate( 714,0) scale(0.8,1)"><tspan>5</tspan><tspan x="0">_</tspan><tspan x="0" dy="1em">7</tspan></text><text x="0" y="1em" transform="translate( 750,0) scale(0.8,1)"><tspan>3</tspan><tspan x="0">_</tspan><tspan x="0" dy="1em">4</tspan></text><text x="0" y="1em" transform="translate( 800,0) scale(0.8,1)"><tspan>4</tspan><tspan x="0">_</tspan><tspan x="0" dy="1em">5</tspan></text><text x="0" y="1em" transform="translate( 833,0) scale(0.8,1)"><tspan>5</tspan><tspan x="0">_</tspan><tspan x="0" dy="1em">6</tspan></text><text x="0" y="1em" transform="translate( 857,0) scale(0.8,1)"><tspan>6</tspan><tspan x="0">_</tspan><tspan x="0" dy="1em">7</tspan></text><text x="0" y="1em" transform="translate(1000,0) scale(0.8,1)"><tspan>1</tspan><tspan x="0">_</tspan><tspan x="0" dy="1em">1</tspan></text><g opacity=".25"><g transform="translate( 0,-500)"><circle cx="0" cy="0" r="500"/><use xlink:href="#cross"/></g><g transform="translate( 143, -10)"><circle cx="0" cy="0" r="10"/><use xlink:href="#cross"/></g><g transform="translate( 167, -14)"><circle cx="0" cy="0" r="14"/><use xlink:href="#cross"/></g><g transform="translate( 200, -20)"><circle cx="0" cy="0" r="20"/><use xlink:href="#cross"/></g><g transform="translate( 250, -31)"><circle cx="0" cy="0" r="31"/><use xlink:href="#cross"/></g><g transform="translate( 286, -10)"><circle cx="0" cy="0" r="10"/><use xlink:href="#cross"/></g><g transform="translate( 333, -56)"><circle cx="0" cy="0" r="56"/><use xlink:href="#cross"/></g><g transform="translate( 400, -20)"><circle cx="0" cy="0" r="20"/><use xlink:href="#cross"/></g><g transform="translate( 429, -10)"><circle cx="0" cy="0" r="10"/><use xlink:href="#cross"/></g><g transform="translate( 500,-125)"><circle cx="0" cy="0" r="125"/><use xlink:href="#cross"/></g><g transform="translate( 571, -10)"><circle cx="0" cy="0" r="10"/><use xlink:href="#cross"/></g><g transform="translate( 600, -20)"><circle cx="0" cy="0" r="20"/><use xlink:href="#cross"/></g><g transform="translate( 667, -56)"><circle cx="0" cy="0" r="56"/><use xlink:href="#cross"/></g><g transform="translate( 714, -10)"><circle cx="0" cy="0" r="10"/><use xlink:href="#cross"/></g><g transform="translate( 750, -31)"><circle cx="0" cy="0" r="31"/><use xlink:href="#cross"/></g><g transform="translate( 800, -20)"><circle cx="0" cy="0" r="20"/><use xlink:href="#cross"/></g><g transform="translate( 833, -14)"><circle cx="0" cy="0" r="14"/><use xlink:href="#cross"/></g><g transform="translate( 857, -10)"><circle cx="0" cy="0" r="10"/><use xlink:href="#cross"/></g><g transform="translate(1000,-500)"><circle cx="0" cy="0" r="500"/><use xlink:href="#cross"/></g></g><path fill="none" stroke-width="4" d="M 0,0 A 71,71 0 0 1 143,0 A 12,12 0 0 1 167,0 A 16,16 0 0 1 200,0 A 25,25 0 0 1 250,0 A 18,18 0 0 1 286,0 A 23,23 0 0 1 333,0 A 33,33 0 0 1 400,0 A 14,14 0 0 1 429,0 A 35,35 0 0 1 500,0 A 35,35 0 0 1 571,0 A 14,14 0 0 1 600,0 A 33,33 0 0 1 667,0 A 23,23 0 0 1 714,0 A 18,18 0 0 1 750,0 A 25,25 0 0 1 800,0 A 16,16 0 0 1 833,0 A 12,12 0 0 1 857,0 A 71,71 0 0 1 1000,0"/><title>F(7) = { 0/1, 1/7, 1/6, 1/5, 1/4, 2/7, 1/3, 2/5, 3/7, 1/2, 4/7, 3/5, 2/3, 5/7, 3/4, 4/5, 5/6, 6/7, 1/1 }</title></g><g fill="#00f" stroke="#00f" class="active"><text x="0" y="1em" transform="translate( 0,0) scale(0.8,1)"><tspan>0</tspan><tspan x="0">_</tspan><tspan x="0" dy="1em">1</tspan></text><text x="0" y="1em" transform="translate( 167,0) scale(0.8,1)"><tspan>1</tspan><tspan x="0">_</tspan><tspan x="0" dy="1em">6</tspan></text><text x="0" y="1em" transform="translate( 200,0) scale(0.8,1)"><tspan>1</tspan><tspan x="0">_</tspan><tspan x="0" dy="1em">5</tspan></text><text x="0" y="1em" transform="translate( 250,0) scale(0.8,1)"><tspan>1</tspan><tspan x="0">_</tspan><tspan x="0" dy="1em">4</tspan></text><text x="0" y="1em" transform="translate( 333,0) scale(0.8,1)"><tspan>1</tspan><tspan x="0">_</tspan><tspan x="0" dy="1em">3</tspan></text><text x="0" y="1em" transform="translate( 400,0) scale(0.8,1)"><tspan>2</tspan><tspan x="0">_</tspan><tspan x="0" dy="1em">5</tspan></text><text x="0" y="1em" transform="translate( 500,0) scale(0.8,1)"><tspan>1</tspan><tspan x="0">_</tspan><tspan x="0" dy="1em">2</tspan></text><text x="0" y="1em" transform="translate( 600,0) scale(0.8,1)"><tspan>3</tspan><tspan x="0">_</tspan><tspan x="0" dy="1em">5</tspan></text><text x="0" y="1em" transform="translate( 667,0) scale(0.8,1)"><tspan>2</tspan><tspan x="0">_</tspan><tspan x="0" dy="1em">3</tspan></text><text x="0" y="1em" transform="translate( 750,0) scale(0.8,1)"><tspan>3</tspan><tspan x="0">_</tspan><tspan x="0" dy="1em">4</tspan></text><text x="0" y="1em" transform="translate( 800,0) scale(0.8,1)"><tspan>4</tspan><tspan x="0">_</tspan><tspan x="0" dy="1em">5</tspan></text><text x="0" y="1em" transform="translate( 833,0) scale(0.8,1)"><tspan>5</tspan><tspan x="0">_</tspan><tspan x="0" dy="1em">6</tspan></text><text x="0" y="1em" transform="translate(1000,0) scale(0.8,1)"><tspan>1</tspan><tspan x="0">_</tspan><tspan x="0" dy="1em">1</tspan></text><g opacity=".25"><g transform="translate( 0,-500)"><circle cx="0" cy="0" r="500"/><use xlink:href="#cross"/></g><g transform="translate( 167, -14)"><circle cx="0" cy="0" r="14"/><use xlink:href="#cross"/></g><g transform="translate( 200, -20)"><circle cx="0" cy="0" r="20"/><use xlink:href="#cross"/></g><g transform="translate( 250, -31)"><circle cx="0" cy="0" r="31"/><use xlink:href="#cross"/></g><g transform="translate( 333, -56)"><circle cx="0" cy="0" r="56"/><use xlink:href="#cross"/></g><g transform="translate( 400, -20)"><circle cx="0" cy="0" r="20"/><use xlink:href="#cross"/></g><g transform="translate( 500,-125)"><circle cx="0" cy="0" r="125"/><use xlink:href="#cross"/></g><g transform="translate( 600, -20)"><circle cx="0" cy="0" r="20"/><use xlink:href="#cross"/></g><g transform="translate( 667, -56)"><circle cx="0" cy="0" r="56"/><use xlink:href="#cross"/></g><g transform="translate( 750, -31)"><circle cx="0" cy="0" r="31"/><use xlink:href="#cross"/></g><g transform="translate( 800, -20)"><circle cx="0" cy="0" r="20"/><use xlink:href="#cross"/></g><g transform="translate( 833, -14)"><circle cx="0" cy="0" r="14"/><use xlink:href="#cross"/></g><g transform="translate(1000,-500)"><circle cx="0" cy="0" r="500"/><use xlink:href="#cross"/></g></g><path fill="none" stroke-width="4" d="M 0,0 A 83,83 0 0 1 167,0 A 16,16 0 0 1 200,0 A 25,25 0 0 1 250,0 A 41,41 0 0 1 333,0 A 33,33 0 0 1 400,0 A 50,50 0 0 1 500,0 A 50,50 0 0 1 600,0 A 33,33 0 0 1 667,0 A 41,41 0 0 1 750,0 A 25,25 0 0 1 800,0 A 16,16 0 0 1 833,0 A 83,83 0 0 1 1000,0"/><title>F(6) = { 0/1, 1/6, 1/5, 1/4, 1/3, 2/5, 1/2, 3/5, 2/3, 3/4, 4/5, 5/6, 1/1 }</title></g><g fill="#0c0" stroke="#0c0" class="active"><text x="0" y="1em" transform="translate( 0,0) scale(0.8,1)"><tspan>0</tspan><tspan x="0">_</tspan><tspan x="0" dy="1em">1</tspan></text><text x="0" y="1em" transform="translate( 200,0) scale(0.8,1)"><tspan>1</tspan><tspan x="0">_</tspan><tspan x="0" dy="1em">5</tspan></text><text x="0" y="1em" transform="translate( 250,0) scale(0.8,1)"><tspan>1</tspan><tspan x="0">_</tspan><tspan x="0" dy="1em">4</tspan></text><text x="0" y="1em" transform="translate( 333,0) scale(0.8,1)"><tspan>1</tspan><tspan x="0">_</tspan><tspan x="0" dy="1em">3</tspan></text><text x="0" y="1em" transform="translate( 400,0) scale(0.8,1)"><tspan>2</tspan><tspan x="0">_</tspan><tspan x="0" dy="1em">5</tspan></text><text x="0" y="1em" transform="translate( 500,0) scale(0.8,1)"><tspan>1</tspan><tspan x="0">_</tspan><tspan x="0" dy="1em">2</tspan></text><text x="0" y="1em" transform="translate( 600,0) scale(0.8,1)"><tspan>3</tspan><tspan x="0">_</tspan><tspan x="0" dy="1em">5</tspan></text><text x="0" y="1em" transform="translate( 667,0) scale(0.8,1)"><tspan>2</tspan><tspan x="0">_</tspan><tspan x="0" dy="1em">3</tspan></text><text x="0" y="1em" transform="translate( 750,0) scale(0.8,1)"><tspan>3</tspan><tspan x="0">_</tspan><tspan x="0" dy="1em">4</tspan></text><text x="0" y="1em" transform="translate( 800,0) scale(0.8,1)"><tspan>4</tspan><tspan x="0">_</tspan><tspan x="0" dy="1em">5</tspan></text><text x="0" y="1em" transform="translate(1000,0) scale(0.8,1)"><tspan>1</tspan><tspan x="0">_</tspan><tspan x="0" dy="1em">1</tspan></text><g opacity=".25"><g transform="translate( 0,-500)"><circle cx="0" cy="0" r="500"/><use xlink:href="#cross"/></g><g transform="translate( 200, -20)"><circle cx="0" cy="0" r="20"/><use xlink:href="#cross"/></g><g transform="translate( 250, -31)"><circle cx="0" cy="0" r="31"/><use xlink:href="#cross"/></g><g transform="translate( 333, -56)"><circle cx="0" cy="0" r="56"/><use xlink:href="#cross"/></g><g transform="translate( 400, -20)"><circle cx="0" cy="0" r="20"/><use xlink:href="#cross"/></g><g transform="translate( 500,-125)"><circle cx="0" cy="0" r="125"/><use xlink:href="#cross"/></g><g transform="translate( 600, -20)"><circle cx="0" cy="0" r="20"/><use xlink:href="#cross"/></g><g transform="translate( 667, -56)"><circle cx="0" cy="0" r="56"/><use xlink:href="#cross"/></g><g transform="translate( 750, -31)"><circle cx="0" cy="0" r="31"/><use xlink:href="#cross"/></g><g transform="translate( 800, -20)"><circle cx="0" cy="0" r="20"/><use xlink:href="#cross"/></g><g transform="translate(1000,-500)"><circle cx="0" cy="0" r="500"/><use xlink:href="#cross"/></g></g><path fill="none" stroke-width="4" d="M 0,0 A 100,100 0 0 1 200,0 A 25,25 0 0 1 250,0 A 41,41 0 0 1 333,0 A 33,33 0 0 1 400,0 A 50,50 0 0 1 500,0 A 50,50 0 0 1 600,0 A 33,33 0 0 1 667,0 A 41,41 0 0 1 750,0 A 25,25 0 0 1 800,0 A 100,100 0 0 1 1000,0"/><title>F(5) = { 0/1, 1/5, 1/4, 1/3, 2/5, 1/2, 3/5, 2/3, 3/4, 4/5, 1/1 }</title></g><g fill="#fc0" stroke="#fc0" class="active"><text x="0" y="1em" transform="translate( 0,0) scale(0.8,1)"><tspan>0</tspan><tspan x="0">_</tspan><tspan x="0" dy="1em">1</tspan></text><text x="0" y="1em" transform="translate( 250,0) scale(0.8,1)"><tspan>1</tspan><tspan x="0">_</tspan><tspan x="0" dy="1em">4</tspan></text><text x="0" y="1em" transform="translate( 333,0) scale(0.8,1)"><tspan>1</tspan><tspan x="0">_</tspan><tspan x="0" dy="1em">3</tspan></text><text x="0" y="1em" transform="translate( 500,0) scale(0.8,1)"><tspan>1</tspan><tspan x="0">_</tspan><tspan x="0" dy="1em">2</tspan></text><text x="0" y="1em" transform="translate( 667,0) scale(0.8,1)"><tspan>2</tspan><tspan x="0">_</tspan><tspan x="0" dy="1em">3</tspan></text><text x="0" y="1em" transform="translate( 750,0) scale(0.8,1)"><tspan>3</tspan><tspan x="0">_</tspan><tspan x="0" dy="1em">4</tspan></text><text x="0" y="1em" transform="translate(1000,0) scale(0.8,1)"><tspan>1</tspan><tspan x="0">_</tspan><tspan x="0" dy="1em">1</tspan></text><g opacity=".25"><g transform="translate( 0,-500)"><circle cx="0" cy="0" r="500"/><use xlink:href="#cross"/></g><g transform="translate( 250, -31)"><circle cx="0" cy="0" r="31"/><use xlink:href="#cross"/></g><g transform="translate( 333, -56)"><circle cx="0" cy="0" r="56"/><use xlink:href="#cross"/></g><g transform="translate( 500,-125)"><circle cx="0" cy="0" r="125"/><use xlink:href="#cross"/></g><g transform="translate( 667, -56)"><circle cx="0" cy="0" r="56"/><use xlink:href="#cross"/></g><g transform="translate( 750, -31)"><circle cx="0" cy="0" r="31"/><use xlink:href="#cross"/></g><g transform="translate(1000,-500)"><circle cx="0" cy="0" r="500"/><use xlink:href="#cross"/></g></g><path fill="none" stroke-width="4" d="M 0,0 A 125,125 0 0 1 250,0 A 41,41 0 0 1 333,0 A 83,83 0 0 1 500,0 A 83,83 0 0 1 667,0 A 41,41 0 0 1 750,0 A 125,125 0 0 1 1000,0"/><title>F(4) = { 0/1, 1/4, 1/3, 1/2, 2/3, 3/4, 1/1 }</title></g><g fill="#f90" stroke="#f90" class="active"><text x="0" y="1em" transform="translate( 0,0) scale(0.8,1)"><tspan>0</tspan><tspan x="0">_</tspan><tspan x="0" dy="1em">1</tspan></text><text x="0" y="1em" transform="translate( 333,0) scale(0.8,1)"><tspan>1</tspan><tspan x="0">_</tspan><tspan x="0" dy="1em">3</tspan></text><text x="0" y="1em" transform="translate( 500,0) scale(0.8,1)"><tspan>1</tspan><tspan x="0">_</tspan><tspan x="0" dy="1em">2</tspan></text><text x="0" y="1em" transform="translate( 667,0) scale(0.8,1)"><tspan>2</tspan><tspan x="0">_</tspan><tspan x="0" dy="1em">3</tspan></text><text x="0" y="1em" transform="translate(1000,0) scale(0.8,1)"><tspan>1</tspan><tspan x="0">_</tspan><tspan x="0" dy="1em">1</tspan></text><g opacity=".25"><g transform="translate( 0,-500)"><circle cx="0" cy="0" r="500"/><use xlink:href="#cross"/></g><g transform="translate( 333, -56)"><circle cx="0" cy="0" r="56"/><use xlink:href="#cross"/></g><g transform="translate( 500,-125)"><circle cx="0" cy="0" r="125"/><use xlink:href="#cross"/></g><g transform="translate( 667, -56)"><circle cx="0" cy="0" r="56"/><use xlink:href="#cross"/></g><g transform="translate(1000,-500)"><circle cx="0" cy="0" r="500"/><use xlink:href="#cross"/></g></g><path fill="none" stroke-width="4" d="M 0,0 A 166,166 0 0 1 333,0 A 83,83 0 0 1 500,0 A 83,83 0 0 1 667,0 A 166,166 0 0 1 1000,0"/><title>F(3) = { 0/1, 1/3, 1/2, 2/3, 1/1 }</title></g><g fill="red" stroke="red" class="active"><text x="0" y="1em" transform="translate( 0,0) scale(0.8,1)"><tspan>0</tspan><tspan x="0">_</tspan><tspan x="0" dy="1em">1</tspan></text><text x="0" y="1em" transform="translate( 500,0) scale(0.8,1)"><tspan>1</tspan><tspan x="0">_</tspan><tspan x="0" dy="1em">2</tspan></text><text x="0" y="1em" transform="translate(1000,0) scale(0.8,1)"><tspan>1</tspan><tspan x="0">_</tspan><tspan x="0" dy="1em">1</tspan></text><g opacity=".25"><g transform="translate( 0,-500)"><circle cx="0" cy="0" r="500"/><use xlink:href="#cross"/></g><g transform="translate( 500,-125)"><circle cx="0" cy="0" r="125"/><use xlink:href="#cross"/></g><g transform="translate(1000,-500)"><circle cx="0" cy="0" r="500"/><use xlink:href="#cross"/></g></g><path fill="none" stroke-width="4" d="M 0,0 A 250,250 0 0 1 500,0 A 250,250 0 0 1 1000,0"/><title>F(2) = { 0/1, 1/2, 1/1 }</title></g><g fill="#630" stroke="#630" class="active"><text x="0" y="1em" transform="translate( 0,0) scale(0.8,1)"><tspan>0</tspan><tspan x="0">_</tspan><tspan x="0" dy="1em">1</tspan></text><text x="0" y="1em" transform="translate(1000,0) scale(0.8,1)"><tspan>1</tspan><tspan x="0">_</tspan><tspan x="0" dy="1em">1</tspan></text><g opacity=".25"><g transform="translate( 0,-500)"><circle cx="0" cy="0" r="500"/><use xlink:href="#cross"/></g><g transform="translate(1000,-500)"><circle cx="0" cy="0" r="500"/><use xlink:href="#cross"/></g></g><path fill="none" stroke-width="4" d="M 0,0 A 500,500 0 0 1 1000,0"/><title>F(1) = { 0/1, 1/1 }</title></g></g></svg>