<svg xmlns="http://www.w3.org/2000/svg" xmlns:xlink="http://www.w3.org/1999/xlink" width="280" height="120" version="1.1" viewBox="0 0 280 120"><defs><marker id="arrowhead" markerHeight="7.2" markerUnits="strokeWidth" markerWidth="9.6" orient="auto" refX="24" refY="12" viewBox="0 0 24 24"><path d="M 0 0 L 24 12 L 0 24 z"/></marker><g id="BallT"><ellipse cx="0" cy="0" fill="#fff" stroke="#000" rx="12" ry="12"/><text x="-1" y="7" font-size="18" font-style="normal" font-weight="normal" text-anchor="middle">T</text></g><g id="BallL"><ellipse cx="0" cy="0" fill="#fff" stroke="#000" rx="12" ry="12"/><text x="-1" y="6" font-size="18" font-style="normal" font-weight="normal" text-anchor="middle">L</text></g><g id="BallR"><ellipse cx="0" cy="0" fill="#fff" stroke="#000" rx="12" ry="12"/><text x="-1" y="7" font-size="18" font-style="normal" font-weight="normal" text-anchor="middle">R</text></g><g id="BallA"><ellipse cx="0" cy="0" fill="#fff" stroke="#000" rx="12" ry="12"/><text x="0" y="6" font-size="18" font-style="normal" font-weight="normal" text-anchor="middle">A</text></g><g id="BallB"><ellipse cx="0" cy="0" fill="#fff" stroke="#000" rx="12" ry="12"/><text x="-1" y="7" font-size="18" font-style="normal" font-weight="normal" text-anchor="middle">B</text></g></defs><g id="SkewBefore" transform="translate(5 5)"><use transform="translate(32 45)" xlink:href="#BallL"/><use transform="translate(82 45)" xlink:href="#BallT"/><use transform="translate(12 85)" xlink:href="#BallA"/><use transform="translate(52 85)" xlink:href="#BallB"/><use transform="translate(102 85)" xlink:href="#BallR"/><g stroke="#000"><line x1="82" x2="82" y1="0" y2="33" stroke-dasharray="3 2" marker-end="url(#arrowhead)"/><line x1="70" x2="44" y1="45" y2="45" marker-end="url(#arrowhead)"/><line x1="26.63" x2="17.37" y1="55.73" y2="74.27" marker-end="url(#arrowhead)"/><line x1="37.37" x2="46.63" y1="55.73" y2="74.27" marker-end="url(#arrowhead)"/><line x1="87.37" x2="96.63" y1="55.73" y2="74.27" marker-end="url(#arrowhead)"/></g></g><path id="BigArrow" fill="#000" stroke="none" d="M -11,-9 L -9,-11 L 1,-1 L 1,1 L -9,11 L -11,9 L -7,5 L -27,5 L -27,2 L -4,2 L -2,0 L -4,-2 L -27,-2 L -27,-5 L -7,-5 z" transform="translate(150 50)"/><g id="SkewAfter" transform="translate(155 5)"><use transform="translate(32 45)" xlink:href="#BallL"/><use transform="translate(82 45)" xlink:href="#BallT"/><use transform="translate(12 85)" xlink:href="#BallA"/><use transform="translate(62 85)" xlink:href="#BallB"/><use transform="translate(102 85)" xlink:href="#BallR"/><g stroke="#000"><line x1="32" x2="32" y1="0" y2="33" stroke-dasharray="3 2" marker-end="url(#arrowhead)"/><line x1="44" x2="70" y1="45" y2="45" marker-end="url(#arrowhead)"/><line x1="26.63" x2="17.37" y1="55.73" y2="74.27" marker-end="url(#arrowhead)"/><line x1="76.63" x2="67.37" y1="55.73" y2="74.27" marker-end="url(#arrowhead)"/><line x1="87.37" x2="96.63" y1="55.73" y2="74.27" marker-end="url(#arrowhead)"/></g></g></svg>