<svg xmlns="http://www.w3.org/2000/svg" xmlns:xlink="http://www.w3.org/1999/xlink" width="501" height="189" version="1.1" viewBox="-0.5 -0.5 501 189" style="background-color:#fff"><defs><style>text{font-family:sans-serif;text-anchor:middle;font-size:12px;fill:#000}path,rect{stroke:#000}</style></defs><g><rect width="40" height="20" x="230" y="0" fill="#FFF"/><text x="249.5" y="14.5">13</text><rect width="20" height="10" x="230" y="20" fill="#FFF"/><rect width="20" height="10" x="250" y="20" fill="#FFF"/><rect width="30" height="20" x="350" y="60" fill="#FFF"/><text x="364.5" y="74.5">17</text><rect width="20" height="10" x="350" y="80" fill="#FFF"/><rect width="20" height="10" x="370" y="80" fill="#FFF"/><rect width="30" height="20" x="380" y="60" fill="#fff"/><text x="394.5" y="74.5">24</text><rect width="20" height="10" x="390" y="80" fill="#FFF"/><rect width="30" height="20" x="280" y="150" fill="#FFF"/><text x="294.5" y="164.5">14</text><rect width="20" height="10" x="280" y="170" fill="#FFF"/><rect width="20" height="10" x="300" y="170" fill="#FFF"/><rect width="30" height="20" x="310" y="150" fill="#FFF"/><text x="324.5" y="164.5">16</text><rect width="20" height="10" x="320" y="170" fill="#FFF"/><rect width="30" height="20" x="360" y="150" fill="#FFF"/><text x="374.5" y="164.5">19</text><rect width="20" height="10" x="360" y="170" fill="#FFF"/><rect width="20" height="10" x="380" y="170" fill="#FFF"/><rect width="30" height="20" x="390" y="150" fill="#fff"/><text x="404.5" y="164.5">23</text><rect width="20" height="10" x="400" y="170" fill="#FFF"/><path fill="none" stroke-miterlimit="10" d="M 240 30 L 124.97 58.76"/><path fill="#000" stroke-miterlimit="10" d="M 121.08 59.73 L 124.64 57.47 L 125.29 60.05 Z"/><path fill="none" stroke-miterlimit="10" d="M 260 30 L 375.03 58.76"/><path fill="#000" stroke-miterlimit="10" d="M 378.92 59.73 L 374.71 60.05 L 375.36 57.47 Z"/><path fill="none" stroke-miterlimit="10" d="M 130 90 L 167.16 145.74"/><path fill="#000" stroke-miterlimit="10" d="M 169.38 149.07 L 166.05 146.48 L 168.27 145 Z"/><path fill="none" stroke-miterlimit="10" d="M 356.15 90 L 313.12 145.94"/><path fill="#000" stroke-miterlimit="10" d="M 310.68 149.11 L 312.06 145.13 L 314.18 146.76 Z"/><path fill="none" stroke-miterlimit="10" d="M 380.77 90 L 389.22 144.94"/><path fill="#000" stroke-miterlimit="10" d="M 389.83 148.9 L 387.9 145.14 L 390.54 144.74 Z"/><path fill="none" stroke-miterlimit="10" d="M 405.38 90 L 466.25 146.52"/><path fill="#000" stroke-miterlimit="10" d="M 469.18 149.24 L 465.34 147.49 L 467.16 145.54 Z"/><rect width="30" height="20" x="140" y="150" fill="#fff"/><text x="154.5" y="164.5">11</text><rect width="20" height="10" x="140" y="170" fill="#FFF"/><rect width="20" height="10" x="160" y="170" fill="#FFF"/><rect width="30" height="20" x="170" y="150" fill="#fff"/><text x="184.5" y="164.5">12</text><rect width="20" height="10" x="180" y="170" fill="#FFF"/><rect width="60" height="30" x="440" y="150" fill="#fff" stroke="none"/><rect width="30" height="20" x="440" y="150" fill="#fff"/><text x="454.5" y="164.5">25</text><rect width="20" height="10" x="440" y="170" fill="#fff"/><rect width="20" height="10" x="460" y="170" fill="#fff"/><rect width="30" height="20" x="470" y="150" fill="#fff"/><text x="484.5" y="164.5">26</text><rect width="20" height="10" x="480" y="170" fill="#fff"/><rect width="40" height="30" x="100" y="60" fill="#fff" stroke="none"/><rect width="40" height="20" x="100" y="60" fill="#fff"/><text x="119.5" y="74.5">7</text><rect width="20" height="10" x="100" y="80" fill="#fff"/><rect width="20" height="10" x="120" y="80" fill="#fff"/><rect width="120" height="30" x="0" y="150" fill="#fff" stroke="none"/><rect width="30" height="20" x="0" y="150" fill="#ccc"/><text x="14.5" y="164.5">1</text><rect width="20" height="10" x="0" y="170" fill="#fff"/><rect width="25" height="10" x="20" y="170" fill="#fff"/><rect width="30" height="20" x="30" y="150" fill="#ccc"/><text x="44.5" y="164.5">3</text><rect width="30" height="10" x="45" y="170" fill="#fff"/><rect width="30" height="20" x="60" y="150" fill="#ccc"/><text x="74.5" y="164.5">4</text><rect width="25" height="10" x="75" y="170" fill="#fff"/><rect width="30" height="20" x="90" y="150" fill="#ccc"/><text x="104.5" y="164.5">6</text><rect width="20" height="10" x="100" y="170" fill="#fff"/><path fill="none" stroke-miterlimit="10" d="M 106.15 90 L 63.12 145.94"/><path fill="#000" stroke-miterlimit="10" d="M 60.68 149.11 L 62.06 145.13 L 64.18 146.76 Z"/></g></svg>