<svg xmlns="http://www.w3.org/2000/svg" xmlns:xlink="http://www.w3.org/1999/xlink" width="442" height="149" version="1.1" viewBox="-0.5 -0.5 442 149" style="background-color:#fff"><defs><style>text{font-family:sans-serif;text-anchor:middle;font-size:12px;fill:#000}path,rect{stroke:#000}</style></defs><g><rect width="30" height="20" x="220" y="110" fill="#FFF"/><text x="234.5" y="124.5">14</text><rect width="20" height="10" x="220" y="130" fill="#FFF"/><rect width="20" height="10" x="240" y="130" fill="#FFF"/><rect width="30" height="20" x="250" y="110" fill="#FFF"/><text x="264.5" y="124.5">16</text><rect width="20" height="10" x="260" y="130" fill="#FFF"/><rect width="30" height="20" x="300" y="110" fill="#FFF"/><text x="314.5" y="124.5">19</text><rect width="20" height="10" x="300" y="130" fill="#FFF"/><rect width="20" height="10" x="320" y="130" fill="#FFF"/><rect width="30" height="20" x="330" y="110" fill="#fff"/><text x="344.5" y="124.5">23</text><rect width="20" height="10" x="340" y="130" fill="#FFF"/><rect width="30" height="20" x="140" y="110" fill="#fff"/><text x="154.5" y="124.5">11</text><rect width="20" height="10" x="140" y="130" fill="#FFF"/><rect width="20" height="10" x="160" y="130" fill="#FFF"/><rect width="30" height="20" x="170" y="110" fill="#fff"/><text x="184.5" y="124.5">12</text><rect width="20" height="10" x="180" y="130" fill="#FFF"/><rect width="60" height="30" x="380" y="110" fill="#fff" stroke="none"/><rect width="30" height="20" x="380" y="110" fill="#fff"/><text x="394.5" y="124.5">25</text><rect width="20" height="10" x="380" y="130" fill="#fff"/><rect width="20" height="10" x="400" y="130" fill="#fff"/><rect width="30" height="20" x="410" y="110" fill="#fff"/><text x="424.5" y="124.5">26</text><rect width="20" height="10" x="420" y="130" fill="#fff"/><rect width="120" height="30" x="160" y="0" fill="#fff" stroke="none"/><rect width="30" height="20" x="160" y="0" fill="#ccc"/><text x="174.5" y="14.5">7</text><rect width="20" height="10" x="160" y="20" fill="#fff"/><rect width="25" height="10" x="180" y="20" fill="#fff"/><rect width="30" height="20" x="190" y="0" fill="#ccc"/><text x="204.5" y="14.5">13</text><rect width="30" height="10" x="205" y="20" fill="#fff"/><rect width="30" height="20" x="220" y="0" fill="#ccc"/><text x="234.5" y="14.5">17</text><rect width="25" height="10" x="235" y="20" fill="#fff"/><rect width="30" height="20" x="250" y="0" fill="#ccc"/><text x="264.5" y="14.5">24</text><rect width="20" height="10" x="260" y="20" fill="#fff"/><rect width="120" height="30" x="0" y="110" fill="#fff" stroke="none"/><rect width="30" height="20" x="0" y="110" fill="#fff"/><text x="14.5" y="124.5">1</text><rect width="20" height="10" x="0" y="130" fill="#fff"/><rect width="25" height="10" x="20" y="130" fill="#fff"/><rect width="30" height="20" x="30" y="110" fill="#fff"/><text x="44.5" y="124.5">3</text><rect width="30" height="10" x="45" y="130" fill="#fff"/><rect width="30" height="20" x="60" y="110" fill="#fff"/><text x="74.5" y="124.5">4</text><rect width="25" height="10" x="75" y="130" fill="#fff"/><rect width="30" height="20" x="90" y="110" fill="#fff"/><text x="104.5" y="124.5">6</text><rect width="20" height="10" x="100" y="130" fill="#fff"/><path fill="none" stroke-miterlimit="10" d="M 163.53 30 L 64.05 106.87"/><path fill="#000" stroke-miterlimit="10" d="M 60.88 109.32 L 63.23 105.82 L 64.87 107.93 Z"/><path fill="none" stroke-miterlimit="10" d="M 191.18 30 L 171.31 105.05"/><path fill="#000" stroke-miterlimit="10" d="M 170.29 108.92 L 170.02 104.71 L 172.6 105.39 Z"/><path fill="none" stroke-miterlimit="10" d="M 221.76 30 L 248.3 105.17"/><path fill="#000" stroke-miterlimit="10" d="M 249.63 108.95 L 247.04 105.62 L 249.55 104.73 Z"/><path fill="none" stroke-miterlimit="10" d="M 252.35 30 L 326.44 106.33"/><path fill="#000" stroke-miterlimit="10" d="M 329.22 109.2 L 325.48 107.26 L 327.39 105.4 Z"/><path fill="none" stroke-miterlimit="10" d="M 278.24 30 L 405.63 107.34"/><path fill="#000" stroke-miterlimit="10" d="M 409.04 109.42 L 404.93 108.48 L 406.32 106.2 Z"/></g></svg>