<svg xmlns="http://www.w3.org/2000/svg" xmlns:xlink="http://www.w3.org/1999/xlink" width="561" height="189" version="1.1" viewBox="-0.5 -0.5 561 189" style="background-color:#fff"><defs><style>text{font-family:sans-serif;text-anchor:middle;font-size:12px;fill:#000}path,rect{stroke:#000}</style></defs><g><rect width="40" height="20" x="230" y="0" fill="#FFF"/><text x="249.5" y="14.5">13</text><rect width="20" height="10" x="230" y="20" fill="#FFF"/><rect width="20" height="10" x="250" y="20" fill="#FFF"/><rect width="30" height="20" x="90" y="60" fill="#FFF"/><text x="104.5" y="74.5">4</text><rect width="20" height="10" x="90" y="80" fill="#FFF"/><rect width="20" height="10" x="110" y="80" fill="#FFF"/><rect width="30" height="20" x="120" y="60" fill="#FFF"/><text x="134.5" y="74.5">7</text><rect width="20" height="10" x="130" y="80" fill="#FFF"/><rect width="30" height="20" x="360" y="60" fill="#FFF"/><text x="374.5" y="74.5">17</text><rect width="20" height="10" x="360" y="80" fill="#FFF"/><rect width="20" height="10" x="380" y="80" fill="#FFF"/><rect width="30" height="20" x="390" y="60" fill="#FFF"/><text x="404.5" y="74.5">20</text><rect width="20" height="10" x="400" y="80" fill="#FFF"/><rect width="30" height="20" x="280" y="150" fill="#FFF"/><text x="294.5" y="164.5">14</text><rect width="20" height="10" x="280" y="170" fill="#FFF"/><rect width="20" height="10" x="300" y="170" fill="#FFF"/><rect width="30" height="20" x="310" y="150" fill="#FFF"/><text x="324.5" y="164.5">16</text><rect width="20" height="10" x="320" y="170" fill="#FFF"/><rect width="30" height="20" x="80" y="150" fill="#FFF"/><text x="94.5" y="164.5">5</text><rect width="20" height="10" x="80" y="170" fill="#FFF"/><rect width="20" height="10" x="100" y="170" fill="#FFF"/><rect width="30" height="20" x="110" y="150" fill="#FFF"/><text x="124.5" y="164.5">6</text><rect width="20" height="10" x="120" y="170" fill="#FFF"/><rect width="30" height="20" x="0" y="150" fill="#FFF"/><text x="14.5" y="164.5">1</text><rect width="20" height="10" x="0" y="170" fill="#FFF"/><rect width="20" height="10" x="20" y="170" fill="#FFF"/><rect width="30" height="20" x="30" y="150" fill="#FFF"/><text x="44.5" y="164.5">3</text><rect width="20" height="10" x="40" y="170" fill="#FFF"/><rect width="30" height="20" x="360" y="150" fill="#FFF"/><text x="374.5" y="164.5">18</text><rect width="20" height="10" x="360" y="170" fill="#FFF"/><rect width="20" height="10" x="380" y="170" fill="#FFF"/><rect width="30" height="20" x="390" y="150" fill="#FFF"/><text x="404.5" y="164.5">19</text><rect width="20" height="10" x="400" y="170" fill="#FFF"/><rect width="30" height="20" x="440" y="150" fill="#FFF"/><text x="454.5" y="164.5">23</text><rect width="20" height="10" x="440" y="170" fill="#FFF"/><rect width="25" height="10" x="460" y="170" fill="#FFF"/><rect width="30" height="20" x="470" y="150" fill="#FFF"/><text x="484.5" y="164.5">24</text><rect width="30" height="10" x="485" y="170" fill="#FFF"/><rect width="30" height="20" x="500" y="150" fill="#FFF"/><text x="514.5" y="164.5">25</text><rect width="25" height="10" x="515" y="170" fill="#FFF"/><rect width="30" height="20" x="530" y="150" fill="#FFF"/><text x="544.5" y="164.5">26</text><rect width="20" height="10" x="540" y="170" fill="#FFF"/><path fill="none" stroke-miterlimit="10" d="M 240 30 L 124.97 58.76"/><path fill="#000" stroke-miterlimit="10" d="M 121.08 59.73 L 124.64 57.47 L 125.29 60.05 Z"/><path fill="none" stroke-miterlimit="10" d="M 260 30 L 385.01 58.85"/><path fill="#000" stroke-miterlimit="10" d="M 388.91 59.75 L 384.71 60.15 L 385.31 57.55 Z"/><path fill="none" stroke-miterlimit="10" d="M 94.62 90 L 33.75 146.52"/><path fill="#000" stroke-miterlimit="10" d="M 30.82 149.24 L 32.84 145.54 L 34.66 147.49 Z"/><path fill="none" stroke-miterlimit="10" d="M 119.23 90 L 110.78 144.94"/><path fill="#000" stroke-miterlimit="10" d="M 110.17 148.9 L 109.46 144.74 L 112.1 145.14 Z"/><path fill="none" stroke-miterlimit="10" d="M 143.85 90 L 186.88 145.94"/><path fill="#000" stroke-miterlimit="10" d="M 189.32 149.11 L 185.82 146.76 L 187.94 145.13 Z"/><path fill="none" stroke-miterlimit="10" d="M 365.38 90 L 313.47 146.24"/><path fill="#000" stroke-miterlimit="10" d="M 310.76 149.18 L 312.49 145.33 L 314.45 147.14 Z"/><path fill="none" stroke-miterlimit="10" d="M 390 90 L 390 144.88"/><path fill="#000" stroke-miterlimit="10" d="M 390 148.88 L 388.67 144.88 L 391.33 144.88 Z"/><path fill="none" stroke-miterlimit="10" d="M 416.92 90 L 495.85 147"/><path fill="#000" stroke-miterlimit="10" d="M 499.09 149.35 L 495.07 148.08 L 496.63 145.92 Z"/><rect width="30" height="20" x="160" y="150" fill="#ccc"/><text x="174.5" y="164.5">11</text><rect width="20" height="10" x="160" y="170" fill="#FFF"/><rect width="20" height="10" x="180" y="170" fill="#FFF"/><rect width="30" height="20" x="190" y="150" fill="#ccc"/><text x="204.5" y="164.5">12</text><rect width="20" height="10" x="200" y="170" fill="#FFF"/></g></svg>