<svg xmlns="http://www.w3.org/2000/svg" xmlns:svg="http://www.w3.org/2000/svg" id="svg2" width="831" height="231" version="1.1"><defs id="defs4"><marker id="Arrow2Lend" orient="auto" refX="0" refY="0" style="overflow:visible"><path id="path3877" style="font-size:12px;fill-rule:evenodd;stroke-width:.625;stroke-linejoin:round" d="M 8.7185878,4.0337352 -2.2072895,0.01601326 8.7185884,-4.0017078 c -1.7454984,2.3720609 -1.7354408,5.6174519 -6e-7,8.035443 z" transform="matrix(-1.1,0,0,-1.1,-1.1,0)"/></marker></defs><metadata id="metadata7"/><g id="layer1" transform="translate(66.21875,-117.5625)"><rect style="fill:#3771c8;fill-rule:evenodd;stroke:#000;stroke-width:1.03906703px;stroke-linecap:butt;stroke-linejoin:miter;stroke-opacity:1" id="rect2985" width="269.961" height="69.988" x="214.305" y="118.096" rx="10.798" ry="9.998"/><rect id="rect2987" width="269.961" height="69.988" x="214.305" y="278.069" style="fill:#3771c8;fill-rule:evenodd;stroke:#000;stroke-width:1.03906703px;stroke-linecap:butt;stroke-linejoin:miter;stroke-opacity:1" rx="10.798" ry="9.998"/><rect style="fill:#3771c8;fill-rule:evenodd;stroke:#000;stroke-width:1.03886711999999992px;stroke-linecap:butt;stroke-linejoin:miter;stroke-opacity:1" id="rect2989" width="269.961" height="69.961" x="-65.695" y="278.096" rx="10.798" ry="9.994"/><rect id="rect2991" width="269.961" height="69.961" x="494.305" y="278.096" style="fill:#3771c8;fill-rule:evenodd;stroke:#000;stroke-width:1.03886712px;stroke-linecap:butt;stroke-linejoin:miter;stroke-opacity:1" rx="10.798" ry="9.994"/><rect style="fill:#d7e3f4" id="rect2993" width="50" height="50" x="234.251" y="124.914" rx="11.448" ry="10.494"/><text xml:space="preserve" style="font-size:40px;font-style:normal;font-weight:400;text-align:center;line-height:125%;letter-spacing:0;word-spacing:0;text-anchor:middle;fill:#000;fill-opacity:1;stroke:none;font-family:Sans" id="text2995" x="258.053" y="163.003"><tspan id="tspan2997" x="258.053" y="163.003" style="font-size:36px;text-align:center;text-anchor:middle">7</tspan></text><path style="fill:#d7e3f4" id="path3001" d="m 242.19155,209.65472 c 0,3.83734 -3.99957,6.94812 -8.93329,6.94812 -4.93373,0 -8.9333,-3.11078 -8.9333,-6.94812 0,-3.83734 3.99957,-6.94811 8.9333,-6.94811 4.93372,0 8.93329,3.11077 8.93329,6.94811 z" transform="matrix(0.55970394,0,0,0.71961931,96.769402,26.731255)"/><rect id="rect3003" width="50" height="50" x="296.251" y="124.914" rx="11.448" ry="10.494" style="fill:#d7e3f4"/><text id="text3005" x="320.053" y="163.003" style="font-size:40px;font-style:normal;font-weight:400;text-align:center;line-height:125%;letter-spacing:0;word-spacing:0;text-anchor:middle;fill:#000;fill-opacity:1;stroke:none;font-family:Sans" xml:space="preserve"><tspan style="font-size:36px;text-align:center;text-anchor:middle" id="tspan3007" x="320.053" y="163.003">16</tspan></text><path id="path3009" d="m 242.19155,209.65472 c 0,3.83734 -3.99957,6.94812 -8.93329,6.94812 -4.93373,0 -8.9333,-3.11078 -8.9333,-6.94812 0,-3.83734 3.99957,-6.94811 8.9333,-6.94811 4.93372,0 8.93329,3.11077 8.93329,6.94811 z" transform="matrix(0.55970394,0,0,0.71961931,158.7694,26.731255)" style="fill:#d7e3f4"/><rect id="rect3011" width="50" height="50" x="234.251" y="284.914" rx="11.448" ry="10.494" style="fill:#d7e3f4"/><text id="text3013" x="258.053" y="323.003" style="font-size:40px;font-style:normal;font-weight:400;text-align:center;line-height:125%;letter-spacing:0;word-spacing:0;text-anchor:middle;fill:#000;fill-opacity:1;stroke:none;font-family:Sans" xml:space="preserve"><tspan style="font-size:36px;text-align:center;text-anchor:middle" id="tspan3015" x="258.053" y="323.003">9</tspan></text><path id="path3017" d="m 242.19155,209.65472 c 0,3.83734 -3.99957,6.94812 -8.93329,6.94812 -4.93373,0 -8.9333,-3.11078 -8.9333,-6.94812 0,-3.83734 3.99957,-6.94811 8.9333,-6.94811 4.93372,0 8.93329,3.11077 8.93329,6.94811 z" transform="matrix(0.55970394,0,0,0.71961931,96.769402,186.73126)" style="fill:#d7e3f4"/><rect style="fill:#d7e3f4" id="rect3019" width="50" height="50" x="296.251" y="284.914" rx="11.448" ry="10.494"/><text xml:space="preserve" style="font-size:40px;font-style:normal;font-weight:400;text-align:center;line-height:125%;letter-spacing:0;word-spacing:0;text-anchor:middle;fill:#000;fill-opacity:1;stroke:none;font-family:Sans" id="text3021" x="320.053" y="323.003"><tspan id="tspan3023" x="320.053" y="323.003" style="font-size:36px;text-align:center;text-anchor:middle">12</tspan></text><path style="fill:#d7e3f4" id="path3025" d="m 242.19155,209.65472 c 0,3.83734 -3.99957,6.94812 -8.93329,6.94812 -4.93373,0 -8.9333,-3.11078 -8.9333,-6.94812 0,-3.83734 3.99957,-6.94811 8.9333,-6.94811 4.93372,0 8.93329,3.11077 8.93329,6.94811 z" transform="matrix(0.55970394,0,0,0.71961931,158.7694,186.73126)"/><path style="fill:#d7e3f4" id="path3027" d="m 242.19155,209.65472 c 0,3.83734 -3.99957,6.94812 -8.93329,6.94812 -4.93373,0 -8.9333,-3.11078 -8.9333,-6.94812 0,-3.83734 3.99957,-6.94811 8.9333,-6.94811 4.93372,0 8.93329,3.11077 8.93329,6.94811 z" transform="matrix(0.55970394,0,0,0.71961931,220.7694,26.731255)"/><path id="path3029" d="m 242.19155,209.65472 c 0,3.83734 -3.99957,6.94812 -8.93329,6.94812 -4.93373,0 -8.9333,-3.11078 -8.9333,-6.94812 0,-3.83734 3.99957,-6.94811 8.9333,-6.94811 4.93372,0 8.93329,3.11077 8.93329,6.94811 z" transform="matrix(0.55970394,0,0,0.71961931,220.7694,186.73126)" style="fill:#d7e3f4"/><rect style="fill:#d7e3f4" id="rect3031" width="50" height="50" x="-45.749" y="284.914" rx="11.448" ry="10.494"/><text xml:space="preserve" style="font-size:40px;font-style:normal;font-weight:400;text-align:center;line-height:125%;letter-spacing:0;word-spacing:0;text-anchor:middle;fill:#000;fill-opacity:1;stroke:none;font-family:Sans" id="text3033" x="-21.947" y="323.003"><tspan id="tspan3035" x="-21.947" y="323.003" style="font-size:36px;text-align:center;text-anchor:middle">1</tspan></text><path style="fill:#d7e3f4" id="path3037" d="m 242.19155,209.65472 c 0,3.83734 -3.99957,6.94812 -8.93329,6.94812 -4.93373,0 -8.9333,-3.11078 -8.9333,-6.94812 0,-3.83734 3.99957,-6.94811 8.9333,-6.94811 4.93372,0 8.93329,3.11077 8.93329,6.94811 z" transform="matrix(0.55970394,0,0,0.71961931,-183.2306,186.73126)"/><rect id="rect3039" width="50" height="50" x="16.251" y="284.914" rx="11.448" ry="10.494" style="fill:#d7e3f4"/><text id="text3041" x="40.053" y="323.003" style="font-size:40px;font-style:normal;font-weight:400;text-align:center;line-height:125%;letter-spacing:0;word-spacing:0;text-anchor:middle;fill:#000;fill-opacity:1;stroke:none;font-family:Sans" xml:space="preserve"><tspan style="font-size:36px;text-align:center;text-anchor:middle" id="tspan3043" x="40.053" y="323.003">2</tspan></text><path id="path3045" d="m 242.19155,209.65472 c 0,3.83734 -3.99957,6.94812 -8.93329,6.94812 -4.93373,0 -8.9333,-3.11078 -8.9333,-6.94812 0,-3.83734 3.99957,-6.94811 8.9333,-6.94811 4.93372,0 8.93329,3.11077 8.93329,6.94811 z" transform="matrix(0.55970394,0,0,0.71961931,-121.2306,186.73126)" style="fill:#d7e3f4"/><path style="fill:#d7e3f4" id="path3047" d="m 242.19155,209.65472 c 0,3.83734 -3.99957,6.94812 -8.93329,6.94812 -4.93373,0 -8.9333,-3.11078 -8.9333,-6.94812 0,-3.83734 3.99957,-6.94811 8.9333,-6.94811 4.93372,0 8.93329,3.11077 8.93329,6.94811 z" transform="matrix(0.55970394,0,0,0.71961931,-59.2306,186.73126)"/><rect id="rect3049" width="50" height="50" x="514.251" y="284.914" rx="11.448" ry="10.494" style="fill:#d7e3f4"/><text id="text3051" x="538.053" y="323.003" style="font-size:40px;font-style:normal;font-weight:400;text-align:center;line-height:125%;letter-spacing:0;word-spacing:0;text-anchor:middle;fill:#000;fill-opacity:1;stroke:none;font-family:Sans" xml:space="preserve"><tspan style="font-size:36px;text-align:center;text-anchor:middle" id="tspan3053" x="538.053" y="323.003">18</tspan></text><path id="path3055" d="m 242.19155,209.65472 c 0,3.83734 -3.99957,6.94812 -8.93329,6.94812 -4.93373,0 -8.9333,-3.11078 -8.9333,-6.94812 0,-3.83734 3.99957,-6.94811 8.9333,-6.94811 4.93372,0 8.93329,3.11077 8.93329,6.94811 z" transform="matrix(0.55970394,0,0,0.71961931,376.7694,186.73126)" style="fill:#d7e3f4"/><rect style="fill:#d7e3f4" id="rect3057" width="50" height="50" x="576.251" y="284.914" rx="11.448" ry="10.494"/><text xml:space="preserve" style="font-size:40px;font-style:normal;font-weight:400;text-align:center;line-height:125%;letter-spacing:0;word-spacing:0;text-anchor:middle;fill:#000;fill-opacity:1;stroke:none;font-family:Sans" id="text3059" x="600.053" y="323.003"><tspan id="tspan3061" x="600.053" y="323.003" style="font-size:36px;text-align:center;text-anchor:middle">21</tspan></text><path style="fill:#d7e3f4" id="path3063" d="m 242.19155,209.65472 c 0,3.83734 -3.99957,6.94812 -8.93329,6.94812 -4.93373,0 -8.9333,-3.11078 -8.9333,-6.94812 0,-3.83734 3.99957,-6.94811 8.9333,-6.94811 4.93372,0 8.93329,3.11077 8.93329,6.94811 z" transform="matrix(0.55970394,0,0,0.71961931,438.7694,186.73126)"/><path id="path3065" d="m 242.19155,209.65472 c 0,3.83734 -3.99957,6.94812 -8.93329,6.94812 -4.93373,0 -8.9333,-3.11078 -8.9333,-6.94812 0,-3.83734 3.99957,-6.94811 8.9333,-6.94811 4.93372,0 8.93329,3.11077 8.93329,6.94811 z" transform="matrix(0.55970394,0,0,0.71961931,500.7694,186.73126)" style="fill:#d7e3f4"/><rect style="fill:#d7e3f4" id="rect3067" width="50" height="50" x="76.251" y="284.914" rx="11.448" ry="10.494"/><text xml:space="preserve" style="font-size:40px;font-style:normal;font-weight:400;text-align:center;line-height:125%;letter-spacing:0;word-spacing:0;text-anchor:middle;fill:#000;fill-opacity:1;stroke:none;font-family:Sans" id="text3069" x="100.053" y="323.003"><tspan id="tspan3071" x="100.053" y="323.003" style="font-size:36px;text-align:center;text-anchor:middle">5</tspan></text><path id="path3073" d="m 242.19155,209.65472 c 0,3.83734 -3.99957,6.94812 -8.93329,6.94812 -4.93373,0 -8.9333,-3.11078 -8.9333,-6.94812 0,-3.83734 3.99957,-6.94811 8.9333,-6.94811 4.93372,0 8.93329,3.11077 8.93329,6.94811 z" transform="matrix(0.55970394,0,0,0.71961931,0.7694,186.73126)" style="fill:#d7e3f4"/><rect id="rect3075" width="50" height="50" x="138.251" y="284.914" rx="11.448" ry="10.494" style="fill:#d7e3f4"/><text id="text3077" x="162.053" y="323.003" style="font-size:40px;font-style:normal;font-weight:400;text-align:center;line-height:125%;letter-spacing:0;word-spacing:0;text-anchor:middle;fill:#000;fill-opacity:1;stroke:none;font-family:Sans" xml:space="preserve"><tspan style="font-size:36px;text-align:center;text-anchor:middle" id="tspan3079" x="162.053" y="323.003">6</tspan></text><path style="fill:#d7e3f4" id="path3081" d="m 242.19155,209.65472 c 0,3.83734 -3.99957,6.94812 -8.93329,6.94812 -4.93373,0 -8.9333,-3.11078 -8.9333,-6.94812 0,-3.83734 3.99957,-6.94811 8.9333,-6.94811 4.93372,0 8.93329,3.11077 8.93329,6.94811 z" transform="matrix(0.55970394,0,0,0.71961931,62.7694,186.73126)"/><path style="fill:#000;stroke:#000;stroke-width:3;stroke-linecap:butt;stroke-linejoin:miter;stroke-miterlimit:4;stroke-opacity:1;stroke-dasharray:none;marker-end:url(#Arrow2Lend)" id="path3083" d="M 224.29531,181.95448 77.170223,276.15814"/><path id="path4297" d="m 289.14765,181.95448 1.7047,94.20366" style="fill:#000;stroke:#000;stroke-width:3;stroke-linecap:butt;stroke-linejoin:miter;stroke-miterlimit:4;stroke-opacity:1;stroke-dasharray:none;marker-end:url(#Arrow2Lend)"/><path style="fill:#000;stroke:#000;stroke-width:3;stroke-linecap:butt;stroke-linejoin:miter;stroke-miterlimit:4;stroke-opacity:1;stroke-dasharray:none;marker-end:url(#Arrow2Lend)" id="path4299" d="m 350.29531,181.95448 171.0959,94.20366"/></g></svg>