<svg xmlns="http://www.w3.org/2000/svg" xmlns:svg="http://www.w3.org/2000/svg" xmlns:xlink="http://www.w3.org/1999/xlink" id="svg2" width="405.33" height="224.241" version="1.1"><title id="title4108">Binary Tree Rotations</title><defs id="defs4"><linearGradient id="linearGradient3931"><stop style="stop-color:#d6fa32;stop-opacity:1" id="stop3933" offset="0"/><stop style="stop-color:#d6fa32;stop-opacity:0" id="stop3935" offset="1"/></linearGradient><linearGradient id="linearGradient3937" x1="218.878" x2="244.355" y1="222.036" y2="222.036" gradientUnits="userSpaceOnUse" xlink:href="#linearGradient3931"/><linearGradient id="linearGradient3937-1" x1="218.878" x2="244.355" y1="222.036" y2="222.036" gradientUnits="userSpaceOnUse" xlink:href="#linearGradient3931-2"/><linearGradient id="linearGradient3931-2"><stop style="stop-color:#d6fa32;stop-opacity:1" id="stop3933-6" offset="0"/><stop style="stop-color:#d6fa32;stop-opacity:0" id="stop3935-0" offset="1"/></linearGradient><linearGradient id="linearGradient4102" x1="218.878" x2="244.355" y1="222.036" y2="222.036" gradientUnits="userSpaceOnUse" xlink:href="#linearGradient3931"/></defs><metadata id="metadata7"/><g id="layer1" transform="translate(-9.9346439,-13.279038)"><g id="g3782"><g id="g4104" transform="translate(-45.839153,-7.563309)"><path style="fill:#31b1f6;fill-opacity:.33333333;stroke:none" id="path3886" d="m 248.05598,54.489842 0,58.510638 23.21277,-29.255318 -23.21277,-29.25532"/><path style="fill:#31b1f6;fill-opacity:.33333333;stroke:none" id="path3886-4" d="m 271.26875,104.92504 0,58.51064 -23.21277,-29.25532 23.21277,-29.25532"/></g><g id="g4071" transform="translate(3.4965035,-5.5547802)"><path style="opacity:.99557525;fill:#d6fa32;fill-opacity:1;stroke:#000;stroke-width:2;stroke-miterlimit:4;stroke-opacity:1;stroke-dasharray:none" id="path3815" d="m 66.6901,19.833818 c -17.94925,0 -32.5,14.55075 -32.5,32.5 0,17.949247 13.32734,32.499997 31.27659,32.499997 17.94926,0 33.72341,-14.55075 33.72341,-32.499997 0,-17.94925 -14.55075,-32.5 -32.5,-32.5 z"/><path style="opacity:.99557525;fill:#18eb13;fill-opacity:.57894736;stroke:#000;stroke-width:2;stroke-miterlimit:4;stroke-opacity:1;stroke-dasharray:none" id="path3815-4" d="m 135.09919,116.29873 c -17.94925,0 -32.5,14.55075 -32.5,32.5 0,17.94924 13.32734,32.5 31.27659,32.5 17.94926,0 33.72341,-14.55076 33.72341,-32.5 0,-17.94925 -14.55075,-32.5 -32.5,-32.5 z"/><g id="g3896" transform="translate(-38.464885,56.002184)"><path id="path3874" d="m 242.49653,200.7772 -23.61542,38.99757" transform="translate(-86.010635,-79.778408)" style="fill:url(#linearGradient4102);stroke:#000;stroke-width:2;stroke-linecap:round;stroke-linejoin:miter;stroke-miterlimit:4;stroke-opacity:1;stroke-dasharray:none;display:inline"/><path id="path3876" d="m 275.35704,200.47498 23.94366,42.32761" transform="translate(-86.010635,-79.778408)" style="fill:none;stroke:#000;stroke-width:2;stroke-linecap:round;stroke-linejoin:miter;stroke-miterlimit:4;stroke-opacity:1;stroke-dasharray:none;display:inline"/></g><text xml:space="preserve" style="font-size:40px;font-style:normal;font-weight:400;line-height:125%;letter-spacing:0;word-spacing:0;fill:#000;fill-opacity:1;stroke:none;font-family:Sans" id="text3902" x="5.594" y="143.971"><tspan id="tspan3904" x="5.594" y="143.971" style="font-size:24px">α</tspan></text><text xml:space="preserve" style="font-size:40px;font-style:normal;font-weight:400;line-height:125%;letter-spacing:0;word-spacing:0;fill:#000;fill-opacity:1;stroke:none;font-family:Sans" id="text3902-8" x="81.903" y="238.305"><tspan id="tspan3904-8" x="81.903" y="238.305" style="font-size:24px">β</tspan></text><text id="text3927" x="172.113" y="237.791" style="font-size:40px;font-style:normal;font-weight:400;line-height:125%;letter-spacing:0;word-spacing:0;fill:#000;fill-opacity:1;stroke:none;font-family:Sans" xml:space="preserve"><tspan style="font-size:24px" id="tspan3929" x="172.113" y="237.791">γ</tspan></text><path id="path3892" d="m 169.79588,124.20573 0,0" style="fill:none;stroke:#000;stroke-width:1px;stroke-linecap:butt;stroke-linejoin:miter;stroke-opacity:1"/><path id="path3988" d="M 48.39663,79.771386 19.58042,122.99155" style="fill:none;stroke:#000;stroke-width:2;stroke-linecap:butt;stroke-linejoin:miter;stroke-miterlimit:4;stroke-opacity:1;stroke-dasharray:none;display:inline"/><path id="path3992" d="M 116.29752,122.28615 85.22438,78.469345" style="fill:none;stroke:#000;stroke-width:2;stroke-linecap:butt;stroke-linejoin:miter;stroke-miterlimit:4;stroke-opacity:1;stroke-dasharray:none"/></g><g id="g4087" transform="translate(-131.46851,-18.221463)"><path style="opacity:.99557525;fill:#18ea13;fill-opacity:.57647059;stroke:#000;stroke-width:2;stroke-miterlimit:4;stroke-opacity:1;stroke-dasharray:none" id="path3815-49" d="m 487.85535,33.549461 c 17.94925,0 32.5,14.55075 32.5,32.5 0,17.94925 -13.32734,32.500003 -31.27659,32.500003 -17.94926,0 -33.72341,-14.550753 -33.72341,-32.500003 0,-17.94925 14.55075,-32.5 32.5,-32.5 z"/><path style="opacity:.99557525;fill:#d6fa32;fill-opacity:.99607843;stroke:#000;stroke-width:2;stroke-miterlimit:4;stroke-opacity:1;stroke-dasharray:none" id="path3815-4-4" d="m 419.44626,130.01437 c 17.94925,0 32.5,14.55075 32.5,32.5 0,17.94924 -13.32734,32.5 -31.27659,32.5 -17.94926,0 -33.72341,-14.55076 -33.72341,-32.5 0,-17.94925 14.55075,-32.5 32.5,-32.5 z"/><text xml:space="preserve" style="font-size:40px;font-style:normal;font-weight:400;line-height:125%;letter-spacing:0;word-spacing:0;fill:#000;fill-opacity:1;stroke:none;font-family:Sans" id="text3902-6" x="373.402" y="246.497"><tspan id="tspan3904-2" x="373.402" y="246.497" style="font-size:24px">α</tspan></text><text xml:space="preserve" style="font-size:40px;font-style:normal;font-weight:400;line-height:125%;letter-spacing:0;word-spacing:0;fill:#000;fill-opacity:1;stroke:none;font-family:Sans" id="text3902-8-4" x="452.508" y="249.923"><tspan id="tspan3904-8-5" x="452.508" y="249.923" style="font-size:24px">β</tspan></text><text id="text3927-8" x="535.026" y="154.304" style="font-size:40px;font-style:normal;font-weight:400;line-height:125%;letter-spacing:0;word-spacing:0;fill:#000;fill-opacity:1;stroke:none;font-family:Sans" xml:space="preserve"><tspan style="font-size:24px" id="tspan3929-8" x="535.026" y="154.304">γ</tspan></text><path id="path3892-1" d="m 384.74957,137.92137 0,0" style="fill:none;stroke:#000;stroke-width:1px;stroke-linecap:butt;stroke-linejoin:miter;stroke-opacity:1"/><path id="path3988-2" d="m 506.14882,93.487033 28.81621,43.220157" style="fill:none;stroke:#000;stroke-width:2;stroke-linecap:butt;stroke-linejoin:miter;stroke-miterlimit:4;stroke-opacity:1;stroke-dasharray:none;display:inline"/><path id="path3992-1" d="M 438.24793,136.0018 469.32107,92.184992" style="fill:none;stroke:#000;stroke-width:2;stroke-linecap:butt;stroke-linejoin:miter;stroke-miterlimit:4;stroke-opacity:1;stroke-dasharray:none"/><path id="path4067" d="m 436.33366,190.82946 21.68421,36.3579" style="fill:none;stroke:#000;stroke-width:2;stroke-linecap:butt;stroke-linejoin:miter;stroke-miterlimit:4;stroke-opacity:1;stroke-dasharray:none"/><path id="path4069" d="M 403.32009,190.21338 381.7941,227.18736" style="fill:none;stroke:#000;stroke-width:2;stroke-linecap:butt;stroke-linejoin:miter;stroke-miterlimit:4;stroke-opacity:1;stroke-dasharray:none"/></g></g></g></svg>